<?xml version="1.0" standalone="no"?>
<!DOCTYPE svg PUBLIC "-//W3C//DTD SVG 1.1//EN" "http://www.w3.org/Graphics/SVG/1.1/DTD/svg11.dtd" >
<!--
2013-9-30: Created.
-->
<svg>
<metadata>
Created by iconfont
</metadata>
<defs>

<font id="iconfont" horiz-adv-x="1024" >
  <font-face
    font-family="iconfont"
    font-weight="500"
    font-stretch="normal"
    units-per-em="1024"
    ascent="896"
    descent="-128"
  />
    <missing-glyph />
    
    <glyph glyph-name="x" unicode="x" horiz-adv-x="1001"
d="M281 543q-27 -1 -53 -1h-83q-18 0 -36.5 -6t-32.5 -18.5t-23 -32t-9 -45.5v-76h912v41q0 16 -0.5 30t-0.5 18q0 13 -5 29t-17 29.5t-31.5 22.5t-49.5 9h-133v-97h-438v97zM955 310v-52q0 -23 0.5 -52t0.5 -58t-10.5 -47.5t-26 -30t-33 -16t-31.5 -4.5q-14 -1 -29.5 -0.5
t-29.5 0.5h-32l-45 128h-439l-44 -128h-29h-34q-20 0 -45 1q-25 0 -41 9.5t-25.5 23t-13.5 29.5t-4 30v167h911zM163 247q-12 0 -21 -8.5t-9 -21.5t9 -21.5t21 -8.5q13 0 22 8.5t9 21.5t-9 21.5t-22 8.5zM316 123q-8 -26 -14 -48q-5 -19 -10.5 -37t-7.5 -25t-3 -15t1 -14.5
t9.5 -10.5t21.5 -4h37h67h81h80h64h36q23 0 34 12t2 38q-5 13 -9.5 30.5t-9.5 34.5q-5 19 -11 39h-368zM336 498v228q0 11 2.5 23t10 21.5t20.5 15.5t34 6h188q31 0 51.5 -14.5t20.5 -52.5v-227h-327z" />
    

    
    <glyph glyph-name="im_sousuo_c" unicode="&#58880;" d="M936.265 41.65999999999997L757.43 220.48000000000002c46.499 63.168 74.02 141.125 74.02 225.398 0 210.1-170.945 381.039-381.055 381.039S69.346 655.977 69.346 445.878c0-210.105 170.94-381.043 381.049-381.043 84.275 0 162.235 27.52 225.405 74.019l178.833-178.819c11.27-11.265 26.036-16.903 40.813-16.903 14.777 0 29.543 5.638 40.819 16.903 22.536 22.546 22.536 59.09 0 81.625zM163.14 445.878C163.14 604.267 292 733.13 450.396 733.13s287.261-128.862 287.261-287.252c0-158.39-128.867-287.252-287.261-287.252S163.14 287.48800000000006 163.14 445.878z"  horiz-adv-x="1024" />

    
    <glyph glyph-name="zy_rili" unicode="&#58881;" d="M866.013-50.605999999999995H156.468c-45.163 0-81.838 36.669-81.838 81.839V658.887c0 45.222 36.675 81.89 81.838 81.89h109.146v-54.576H129.206v-682.23h764.069V686.1469999999999H756.808v54.63H865.96c45.223 0 81.89-36.668 81.89-81.89v-627.602c0-45.222-36.667-81.89-81.837-81.89zM647.707 495.158H756.86v-81.839H647.707v81.839zM756.86 140.385H647.707v81.837H756.86v-81.837zM647.707 358.69100000000003H756.86v-81.839H647.707v81.839z m40.92 245.62c-22.584 0-40.92 18.333-40.92 40.918V781.696c0 22.585 18.282 40.92 40.92 40.92s40.92-18.335 40.92-40.92V645.23c-0.001-22.585-18.336-40.919-40.92-40.919zM456.665 495.157h109.153v-81.839H456.664v81.839z m109.153-354.773H456.664v81.837h109.153v-81.837zM456.664 358.69100000000003h109.153v-81.839H456.664v81.839z m-54.576 382.086h218.305v-54.576H402.088v54.576zM265.614 222.27599999999995h109.16v-81.838h-109.16v81.838z m0 136.415h109.16v-81.839h-109.16v81.839z m0 136.467h109.16v-81.839h-109.16v81.839z m68.241 109.152c-22.585 0-40.919 18.334-40.919 40.92V781.6949999999999c0 22.585 18.334 40.92 40.92 40.92 22.57 0 40.918-18.335 40.918-40.92V645.23c0-22.585-18.281-40.919-40.919-40.919z m0 0"  horiz-adv-x="1024" />

    
    <glyph glyph-name="mb_zhuxiao" unicode="&#58882;" d="M63.325 396.923c0 12.372-1.202 24.888 0.26 37.085 2.714 22.633 5.999 45.294 10.824 67.558 8.482 39.142 23.586 75.992 42.621 111.164 11.45 21.155 24.505 41.369 39.71 60.043 9.645 11.845 19.894 23.214 30.174 34.521 24.063 26.469 51.82 48.628 81.87 67.798 14.32 9.136 29.194 17.822 44.784 24.434 16.697 7.081 33.228 0.63 42.661-13.858 11.237-17.259 5.113-41.522-12.754-50.535-23.271-11.74-45.445-25.254-65.552-41.68a488.39 488.39 0 0 1-45.376-42.124c-19.363-20.428-35.708-43.366-49.686-67.85-11.062-19.375-20.664-39.53-27.581-60.734-5.75-17.621-11.014-35.503-14.83-53.62-3.155-14.988-4.363-30.45-5.54-45.772a402.378 402.378 0 0 1-1.078-40.83c0.536-21.527 3.484-42.82 7.91-63.922 4.61-21.991 11.281-43.321 19.68-64.126 11.061-27.398 25.427-52.955 42.588-77.015 13.624-19.1 28.796-36.825 45.723-53.015a381.896 381.896 0 0 1 68.254-51.997c25.796-15.419 52.834-28.138 81.76-36.229 18.518-5.18 37.445-9.016 56.332-12.73 23.99-4.716 48.397-5.352 72.69-4.108 16.514 0.845 32.932 3.818 49.358 6.09 27.202 3.762 53.15 12.193 78.347 22.694 29.178 12.16 56.65 27.581 81.622 47.106 10.895 8.517 21.789 17.137 31.843 26.603 25.137 23.668 46.605 50.364 64.5 79.98 17.107 28.307 30.644 58.139 39.223 90.06 4.546 16.915 8.15 34.103 11.585 51.288 1.538 7.694 1.857 15.668 2.292 23.538 0.595 10.758 0.97 21.537 1.089 32.312 0.372 33.289-4.754 65.86-13.38 97.921-7.072 26.28-16.992 51.502-29.8 75.488-12.666 23.722-27.134 46.345-45.109 66.468-10.823 12.117-21.599 24.389-33.474 35.43-19.845 18.451-41.477 34.714-65.067 48.238-6.33 3.63-12.499 7.54-18.75 11.308-7.429 4.48-10.812 11.834-12.672 19.647-2.567 10.781-0.436 20.763 6.316 30.037 9.783 13.438 29.456 18.327 43.016 10.676 18.61-10.502 37.265-21.204 54.558-33.683 17.006-12.272 32.534-26.64 48.345-40.504 19.349-16.966 35.517-36.872 50.862-57.405 16.728-22.385 30.676-46.486 42.86-71.625 14.074-29.04 24.933-59.25 31.892-90.73 3.677-16.63 5.91-33.583 8.684-50.408 4.133-25.067 3.769-50.381 2.964-75.599-0.495-15.5-3.147-30.946-5.086-46.385-3.524-28.052-10.838-55.198-20.255-81.79-10.549-29.79-23.773-58.358-40.946-84.922-9.915-15.336-19.716-30.939-31.39-44.899-15.157-18.127-31.24-35.695-48.526-51.781-25.85-24.054-54.582-44.476-85.732-61.397-25.45-13.825-51.802-25.416-79.4-34.217-22.39-7.14-45.109-12.883-68.437-15.843-14.06-1.784-28.177-3.349-42.318-4.196-15.005-0.898-30.09-1.51-45.097-0.989-13.967 0.486-27.975 2.002-41.787 4.19-18.526 2.937-37.176 5.87-55.227 10.802-20.197 5.519-40.081 12.518-59.565 20.228-29.406 11.637-56.96 27.037-82.538 45.659-13.967 10.167-27.47 21.043-40.563 32.319-10.583 9.114-20.618 18.946-30.23 29.091-21.208 22.384-39.997 46.711-55.493 73.41-8.571 14.766-17.063 29.667-24.272 45.122-12.644 27.106-22.706 55.26-28.908 84.582-3.49 16.499-6.43 33.169-8.485 49.9-2.183 17.795-3.026 35.753-4.455 53.64 0.718 0.031 1.44 0.06 2.162 0.088zM546.37 562.321c0-74.62 0.044-149.24-0.03-223.86-0.02-17.942-15.65-31.386-32.147-32.451-13.586-0.877-24.565 4.076-32.626 15.195-5.042 6.954-6.512 15.143-6.522 23.267-0.162 144.976-0.169 289.953-0.047 434.928 0.014 16.241 6.283 29.714 22.098 36.062 23.35 9.372 49.265-5.883 49.27-30.88 0.015-74.086 0.005-148.173 0.005-222.26z"  horiz-adv-x="1024" />

    
    <glyph glyph-name="jt_gongjiao" unicode="&#58883;" d="M858.56375 185.13854167v-44.4796875q0-21.3121875-4.633125-37.0659375t-16.68-25.0190625-36.13875-9.26625v-57.451875q0-24.0928125-17.143125-41.235t-41.235-17.143125-40.771875 17.143125-16.68 41.235v57.451875H336.8646875v-57.451875q0-24.0928125-16.6790625-41.235t-40.771875-17.143125-41.2359375 17.143125-17.143125 41.235v57.451875q-23.165625 0-35.2125 9.26625t-16.6790625 25.0190625-5.0971875 36.6028125-0.463125 44.941875V706.83666667q0 24.0928125 9.26625 44.941875t25.02 36.6028125 36.601875 25.0190625T279.4128125 822.66666667h463.3209375q24.0928125 0 44.941875-9.26625t36.6028125-25.0190625 25.0190625-36.6028125 9.26625-44.941875v-521.6990625zM393.3903125 765.21385417q-12.046875 0-20.386875-8.34t-8.3390625-20.3859375q0-12.973125 8.3390625-21.3121875t20.386875-8.34H628.75625q12.0459375 0 20.3859375 8.34t8.3390625 21.3121875q0 12.046875-8.3390625 20.3859375t-20.3859375 8.34H393.3903125zM306.284375 175.87135417000002q17.60625 0 30.11625 12.51t12.51 30.1153125-12.51 30.11625-30.11625 12.5090625q-18.5325 0-30.5784375-12.5090625t-12.046875-30.11625 12.046875-30.1153125 30.5784375-12.51z m405.8690625 1.8534375q16.68 0 28.2628125 12.046875T752 218.49572917t-11.5828125 28.7259375-28.2628125 12.046875q-17.60625 0-29.1890625-12.046875t-11.5828125-28.725 11.5828125-28.726875 29.1890625-12.046875z m88.9575 471.66H221.0346875v-231.66h580.078125V649.38479167z"  horiz-adv-x="1024" />

    
    <glyph glyph-name="im_sousuo_b" unicode="&#58884;" d="M689.979 701.703c-136.88 136.878-358.805 136.878-495.683-0.001-136.879-136.879-136.879-358.802 0-495.682C319.054 81.26300000000003 514.45 70.23800000000006 651.722 172.89999999999998L854.8-30.177999999999997c8.244-8.244 21.733-8.244 29.977 0l41.4 41.4c8.245 8.246 8.245 21.733 0 29.978L723.1 244.279c102.662 137.27 91.637 332.665-33.121 457.424zM640.41 255.58900000000006c-109.503-109.503-287.042-109.503-396.546 0.001-109.503 109.502-109.503 287.042 0 396.545 109.503 109.503 287.044 109.504 396.547 0s109.503-287.044 0-396.546z"  horiz-adv-x="1024" />

    
    <glyph glyph-name="jt_jiaoche" unicode="&#58885;" d="M876.269 454.817h-12.266c-4.089 11.932-4.089 19.903-8.177 31.86-4.089 15.943-45 103.5-77.735 143.332-45 51.737-130.937 75.651-265.937 75.651-139.114 0-225.025-23.889-265.937-75.651-36.823-39.832-73.646-127.415-77.734-143.332-4.089-11.931-8.177-23.888-8.177-31.86h-12.317c-69.558 0-85.912-39.806-85.912-71.666 0-11.957 12.266-23.888 24.557-27.874l49.089-7.971c-12.266-59.735-20.443-131.4-20.443-199.08v-83.623c0-15.917 12.266-27.849 28.646-27.849h57.291c16.354 0 41.503 11.932 41.503 27.849V88.44000000000005h538.92v-19.826c0-15.943 25.123-27.874 41.503-27.874h57.291c16.355 0 28.646 11.931 28.646 27.874v83.597c0 67.706-8.177 139.346-20.469 199.08l49.089 7.972c12.266 0 24.557 11.931 24.557 27.874-0.051 27.849-16.431 67.68-85.988 67.68zM213.457 207.96000000000004c-20.468 0-40.911 15.943-40.911 39.806 0 19.903 16.354 39.831 40.911 39.831 20.469 0 40.912-15.943 40.912-39.831 0-23.863-16.38-39.806-40.912-39.806z m-12.266 179.177c28.646 131.374 69.558 187.123 85.912 203.04 24.557 27.874 88.251 65.392 231.454 65.392s194.066-37.518 218.597-65.392c16.355-15.917 57.292-71.666 85.912-203.04-61.38-23.888-167.735-43.791-310.963-43.791-143.177 0-249.557 19.877-310.912 43.791z m605.52-179.177c-20.468 0-40.911 15.943-40.911 39.806 0 19.903 16.354 39.831 40.911 39.831 20.469 0 40.912-15.943 40.912-39.831 0-23.863-20.443-39.806-40.912-39.806z"  horiz-adv-x="1025" />

    
    <glyph glyph-name="zy_yuyue" unicode="&#58886;" d="M401.239 352.45899999999995H205.716v-55.864h195.523V352.46000000000004zM205.716 156.937h195.523v55.862H205.716v-55.862zM736.419 380.39c-123.21 0-223.452-100.242-223.452-223.453S613.21-66.51800000000003 736.419-66.51800000000003c123.21 0 223.452 100.244 223.452 223.455S859.63 380.39 736.419 380.39z m0-391.043c-92.416 0-167.59 75.176-167.59 167.59s75.175 167.59 167.59 167.59c92.413 0 167.59-75.177 167.59-167.59s-75.177-167.59-167.59-167.59zM149.852 73.13999999999999c-7.444 0-14.455 2.92-19.748 8.183-5.265 5.292-8.183 12.302-8.183 19.75v335.18h646.26c18.125-2.592 35.571-7.278 52.034-13.966V631.774c0 22.395-8.729 43.44-24.548 59.247-15.823 15.833-36.88 24.548-59.246 24.548h-55.863V827.297h-55.864V715.5699999999999H289.512V827.297H233.65V715.5699999999999h-83.797c-22.365 0-43.423-8.715-59.245-24.535-15.82-15.821-24.549-36.866-24.549-59.26v-530.703c0-22.367 8.729-43.426 24.55-59.245 15.821-15.822 36.88-24.551 59.244-24.551h354.085a222.782 222.782 0 0 0-32.868 55.864H149.852z m-27.93 502.77v55.862c0 7.461 2.891 14.47 8.182 19.748 5.293 5.28 12.303 8.184 19.748 8.184h83.797v-83.795h55.863v83.795h335.181v-83.795h55.864v83.795h55.863c7.445 0 14.456-2.904 19.75-8.196 5.29-5.265 8.18-12.276 8.18-19.736V492.115H121.922v83.796zM764.35 268.663h-55.863v-139.659h139.657v55.864H764.35v83.795z"  horiz-adv-x="1024" />

    
    <glyph glyph-name="zy_peisong" unicode="&#58887;" d="M215.733 473.683l37.384 37.384c17.378 0.164 31.42 14.297 31.42 31.715 0 10.799-5.4 20.331-13.645 26.061V677.858c0 10.55-8.552 19.101-19.102 19.101-10.548 0-19.1-8.552-19.1-19.101v-110.555c-7.081-5.82-11.598-14.641-11.598-24.52 0-3.502 0.575-6.869 1.624-10.02l-33.031-33.03c-7.194-7.194-7.194-18.855 0-26.05s18.856-7.193 26.05 0zM831.49 583.443H628.963V637.96c0 23.296-19.753 42.18-44.118 42.18h-174.8c-38.666 46.633-97.036 76.338-162.347 76.338-116.423 0-210.8-94.379-210.8-210.8 0-45.855 14.649-88.284 39.51-122.88v-271.456c0-23.295 19.753-42.18 44.118-42.18h53.007c9.073-55.005 56.84-96.964 114.416-96.964 57.576 0 105.344 41.96 114.416 96.964h182.482c8.472 0 16.384 2.287 23.104 6.246 6.012-3.962 13.051-6.245 20.58-6.245h39.236c9.07-55.006 56.838-96.965 114.415-96.965s105.345 41.96 114.417 96.965h52.574c22.081 0 39.982 19.61 39.982 43.796V384.106C991.643 415.21 858.1 585.5899999999999 831.49 583.443zM81.24 545.678c0 55.24 26.916 104.186 68.337 134.463 27.516 20.113 61.428 31.995 98.121 31.995s70.605-11.882 98.12-31.995a167.438 167.438 0 0 0 38.733-39.695c18.659-26.897 29.606-59.551 29.606-94.767 0-91.932-74.526-166.457-166.458-166.457-54.875 0-103.541 26.558-133.864 67.516-20.478 27.66-32.595 61.884-32.595 98.94z m277.898-436.513c-8.384-31.475-37.074-54.67-71.19-54.67s-62.803 23.194-71.186 54.67a73.68 73.68 0 0 0-2.49 19.01c0 6.44 0.831 12.685 2.384 18.641 8.256 31.663 37.044 55.036 71.293 55.036 34.25 0 63.038-23.373 71.294-55.036a73.758 73.758 0 0 0 2.384-18.642c-0.001-6.575-0.874-12.943-2.49-19.009z m232.401 447.112c-1.923-5.128-2.99-10.741-2.99-16.629v-370.546c-5.787-13.095-19.347-22.287-35.154-22.287h-150.97c-8.92 55.187-56.773 97.333-114.477 97.333s-105.556-42.147-114.476-97.333h-21.496c-21.066 0-38.143 16.326-38.143 36.466V382.83299999999997c36.405-29.962 83.035-47.956 133.864-47.956 116.424 0 210.8 94.379 210.8 210.8 0 34.085-8.1 66.275-22.465 94.767h117.361c21.067 0 38.144-16.326 38.144-36.466v-47.702z m261.83-447.11c-8.384-31.476-37.073-54.671-71.189-54.671s-62.804 23.194-71.188 54.67a73.677 73.677 0 0 0 0.282 39.013c8.72 30.966 37.152 53.673 70.906 53.673s62.187-22.707 70.907-53.673a73.704 73.704 0 0 0 0.282-39.013z m96.826 75.318c0-20.05-14.282-36.307-31.9-36.307h-21.866c-9.48 54.517-57.021 95.97-114.25 95.97s-104.77-41.453-114.248-95.97h-5.457c-17.618 0-31.9 16.259-31.9 36.307v320.57c0 20.053 14.281 36.306 31.9 36.306h161.93c7.151-7.857 16.522-18.897 26.926-31.593H750.28c-23.77 0-43.037-20.658-43.037-46.141v-98.041c0-25.484 19.268-46.143 43.037-46.143h196.345c1.203 0 2.39 0.068 3.568 0.171v-135.13z m0 169.096l-0.01 1.767-169.032-0.095c-20.662 0-37.413 12.523-37.413 27.974v59.438c0 15.45 16.75 27.973 37.413 27.973l101.334 0.136c32.946-42.158 65.253-86.244 67.707-94.665v-22.527z"  horiz-adv-x="1024" />

    
    <glyph glyph-name="ly_huancheng" unicode="&#58888;" d="M765.463 460.833c0 107.108-87.435 192.357-192.358 192.357-107.108 0-192.357-87.435-192.357-192.357 0-34.974 8.744-67.762 26.23-96.179l168.313-222.96 168.313 222.96c10.93 26.23 21.859 59.019 21.859 96.179M570.92 362.46799999999996c-52.462 0-96.18 43.718-96.18 96.179s43.718 96.179 96.18 96.179c52.46 0 96.178-43.718 96.178-96.179s-41.531-96.179-96.178-96.179M581.849-17.875c-13.115 0-28.416 0-41.532 2.186l-13.115 2.186c-6.558 0-13.115 2.186-17.487 2.186l-6.558 2.186c-4.371 0-8.743 2.185-13.115 2.185l-4.372 2.186c-8.743 2.186-17.487 4.372-24.044 6.558l-8.744 2.186c-13.115 4.372-21.859 6.557-30.602 10.93l-10.93 2.185c-10.93 4.372-19.673 8.744-30.602 15.301-37.16 21.86-69.948 43.718-98.365 72.134-10.93 10.93-19.673 19.673-26.23 28.417l-8.744 13.115c-4.372 4.372-8.743 10.93-10.93 15.301-52.46 74.32-76.505 157.384-76.505 242.633v30.602H94.398l89.62 133.34 89.622-133.34h-65.577V404c0-83.063 28.417-166.127 80.878-231.703l4.372-6.558c6.557-8.744 15.3-17.487 21.859-24.045 26.23-26.23 54.647-48.09 85.249-65.576 10.93-6.558 19.673-10.93 30.602-15.301l6.558-2.186c8.743-4.372 17.487-6.558 24.045-8.744l10.929-4.371c8.743-2.186 15.301-4.372 24.045-6.558 6.557-2.186 10.93-2.186 13.115-2.186 6.558-2.186 15.301-2.186 21.859-4.372l15.3-2.186c10.93 0 19.674-2.186 30.603-2.186h4.372c76.506 0 150.826 24.045 214.216 67.763 4.372 2.186 8.744 4.372 13.116 4.372 8.743 0 15.3-4.372 19.673-10.93 8.743-10.93 4.371-26.23-6.558-34.974-69.948-45.903-153.012-72.134-240.447-72.134z m308.21 391.273h65.576V404c0 85.25-30.603 170.499-85.25 236.075-39.346 45.904-87.435 83.064-142.082 107.108-13.115 4.372-21.859 8.744-30.602 10.93l-8.744 2.186-26.23 6.557-10.93 2.186c-8.743 2.186-17.487 2.186-26.23 4.372l-10.93 2.186c-10.93 0-21.859 2.186-32.788 2.186-80.878 0-153.012-24.045-216.402-67.763-4.372-2.186-8.744-4.371-13.115-4.371-8.744 0-15.302 4.371-19.673 10.929-4.372 4.372-4.372 10.93-4.372 17.487 2.186 6.558 4.372 13.115 10.93 15.301 72.133 50.275 155.197 76.506 240.446 76.506h6.558c10.93 0 21.859 0 32.788-2.186l21.859-2.186c4.372 0 8.743 0 10.93-2.186l21.858-4.371 26.23-6.558 6.558-2.186c13.116-4.372 24.045-8.743 32.788-13.115l4.372-2.186c61.205-26.23 115.852-65.577 157.384-118.038l2.185-4.371c6.558-6.558 13.116-15.302 17.488-24.045 50.275-74.32 76.505-157.384 76.505-242.633v-30.602h65.577l-89.621-133.339-83.064 135.525z"  horiz-adv-x="1180" />

    
    <glyph glyph-name="tr_lvyou" unicode="&#58889;" d="M141.417 633.867S24.15 464.741 103.082 273.058c21.422-20.297 38.335-16.91 48.48 37.207-6.765 55.808-3.378 123.466 64.27 148.836s147.147-38.9 147.147-38.9 148.837-49.046 153.907 123.466 103.167 170.819 133.614 174.2 93.017 32.139 20.297 77.795-258.766 42.281-387.307-25.366c-116.698-77.795-142.066-136.43-142.066-136.43z m795.746-291.469s-9.302 76.114-41.433 15.224c-27.057-43.97-16.91-77.795-68.781-78.929s-95.844 56.38-145.45 19.169-14.656-113.876-14.656-113.876 35.847-65.394-11.956-91.325-80.503-7.892-92.898 56.373-31.578 152.211-151.092 27.058l-13.531-19.166s-21.422-54.119-62.015-69.906-91.326 50.736-100.35 56.38-105.986 9.016-45.1-41.718 166.866-161.233 347.273-136.43 320.212 94.715 394.635 325.856c5.635 23.68 5.357 51.303 5.357 51.303zM949.169 675.994c4.986 14.958 4.045 26.487-2.81 34.59-8.1 6.861-19.633 7.787-34.595 2.816-14.961-4.987-28.365-13.398-40.203-25.244l-37.39-37.395-155.409 37.16c-2.492 0.776-4.835 0.154-7.005-1.864l-29.921-29.915c-1.711-1.714-2.41-3.818-2.103-6.311 0.463-2.494 1.787-4.368 3.973-5.613l118.723-65.204-60.537-60.537-45.34 12.386c-0.307 0.154-0.934 0.235-1.872 0.235-2.188 0-3.973-0.704-5.376-2.102l-22.43-22.672c-1.564-1.865-2.257-3.818-2.106-5.838 0.306-2.494 1.321-4.29 3.033-5.376l58.897-44.17 44.17-58.898c1.406-1.714 3.276-2.726 5.61-3.04h0.468c2.188 0 3.977 0.705 5.377 2.102l22.43 22.431c2.02 2.188 2.647 4.597 1.88 7.25l-12.388 45.34 60.537 60.538 65.204-118.726c0.933-2.02 2.566-3.269 4.901-3.744 0.463-0.154 1.02-0.226 1.634-0.226 1.86 0 3.344 0.463 4.441 1.397l29.919 22.43c2.646 2.189 3.584 4.752 2.808 7.714l-37.394 162.66 37.621 37.629c11.845 11.845 20.255 25.246 25.244 40.209zM110.97 252.76s-43.969-83.793 162.364 8.843 290.875 182.27 290.875 182.27 39.873 33.83 60.538 18.603 68.023-47.354 29.125-91.325-126.843-89.638-126.843-89.638-106.55-66.52-233.395-100.908-224.939-14.098-228.32 14.656c1.693 18.602-6.765 18.602 21.989 49.045 13.53 10.991 23.679 8.453 23.679 8.453z"  horiz-adv-x="1024" />

    
    <glyph glyph-name="mn_biaoqian_fill" unicode="&#58890;" d="M495.361 520.206c0 70.269 57.162 127.43 127.431 127.43s127.431-57.161 127.431-127.43-57.162-127.431-127.43-127.431-127.432 57.161-127.432 127.43m411.53 186.997c0 40.05-32.55 72.635-71.252 72.635h-0.073c-1.238 0.037-127.067 4.66-221.985 4.66-109.409 0-119.24-5.279-131.072-17.111L313.317 598.193 96.32 381.197c-28.4-28.4-28.326-74.639 0.182-103.147l308.602-308.602c13.835-13.799 32.149-21.372 51.7-21.372 19.515 0 37.756 7.537 51.41 21.19L749.676 210.73000000000002l144.726 144.725c12.743 12.744 24.758 24.758 12.488 351.747"  horiz-adv-x="1024" />

    
    <glyph glyph-name="mn_dingdan_fill" unicode="&#58891;" d="M657.636 420.445H366.364a36.409 36.409 0 0 0 0 72.818h291.272a36.409 36.409 0 0 0 0-72.818m0-182.044H366.364a36.409 36.409 0 0 0 0 72.818h291.272a36.409 36.409 0 0 0 0-72.818M839.97 820.907H184.03a72.818 72.818 0 0 1-72.527-72.89V20.019999999999982a72.818 72.818 0 0 1 72.527-72.927H839.97a72.818 72.818 0 0 1 72.527 72.927V748.016a72.818 72.818 0 0 1-72.527 72.89"  horiz-adv-x="1024" />

    
    <glyph glyph-name="mn_gongneng_fill" unicode="&#58892;" d="M402.883 775.65H184.21a72.818 72.818 0 0 1-72.709-72.708V484.27a72.818 72.818 0 0 1 72.709-72.708h218.672a72.818 72.818 0 0 1 72.708 72.708V702.942a72.818 72.818 0 0 1-72.708 72.708M936.49 645.052L781.863 799.644a72.818 72.818 0 0 1-102.819 0l-21.408-21.409-133.22-133.183a72.199 72.199 0 0 1-21.227-51.264 72.199 72.199 0 0 1 21.226-51.555l21.409-21.408L657.636 408.94l21.408-21.408a72.709 72.709 0 0 1 102.819 0.036l133.22 133.257 21.408 21.372a72.745 72.745 0 0 1 0 102.818M402.883 338.744H184.21a72.818 72.818 0 0 1-72.709-72.709v-218.672a72.818 72.818 0 0 1 72.709-72.708h218.672a72.818 72.818 0 0 1 72.708 72.708V266.03499999999997a72.818 72.818 0 0 1-72.708 72.709m436.906 0H621.117a72.818 72.818 0 0 1-72.708-72.709v-218.672a72.818 72.818 0 0 1 72.708-72.708H839.79a72.818 72.818 0 0 1 72.709 72.708V266.03499999999997a72.818 72.818 0 0 1-72.709 72.709"  horiz-adv-x="1024" />

    
    <glyph glyph-name="mn_xiaoxi1" unicode="&#58893;" d="M839.68 165.54700000000003v-20.353H630.183c-33.75 0-69.614-21.445-85.233-51.009L512 31.926000000000045l-32.95 62.296c-15.62 29.527-51.482 50.972-85.233 50.972H184.32V675.271h655.36v-509.724z m6.044 582.542H178.276c-36.81 0-66.774-31.275-66.774-69.687v-536.34c0-38.41 30.038-69.686 66.92-69.686h215.395c6.735 0 17.877-6.517 20.898-12.233l43.29-81.884 3.314-5.17c12.707-16.53 31.166-25.996 50.681-25.996 19.515 0 37.974 9.467 50.681 25.996l46.604 87.054c2.803 5.243 13.616 12.233 20.898 12.233H845.76c36.81 0 66.738 31.276 66.738 69.687v536.34c0 38.41-29.965 69.686-66.774 69.686zM311.751 456.818c-14.054 0-26.724-5.462-36.409-14.163a54.25 54.25 0 0 1-18.204-40.45c0-16.13 7.1-30.438 18.204-40.45a54.25 54.25 0 0 1 36.41-14.164 54.613 54.613 0 0 1 0 109.227m400.497 0a54.613 54.613 0 0 1 0-109.227c14.054 0 26.724 5.461 36.409 14.163 11.104 10.013 18.204 24.321 18.204 40.45a54.25 54.25 0 0 1-18.204 40.45 54.25 54.25 0 0 1-36.41 14.164m-200.248 0c-14.054 0-26.724-5.462-36.409-14.163a54.25 54.25 0 0 1-18.204-40.45c0-16.13 7.1-30.438 18.204-40.45A54.25 54.25 0 0 1 512 347.59000000000003c14.054 0 26.724 5.461 36.409 14.163 11.105 10.013 18.204 24.321 18.204 40.45a54.25 54.25 0 0 1-18.204 40.45A54.25 54.25 0 0 1 512 456.819"  horiz-adv-x="1024" />

    
    <glyph glyph-name="mn_gongneng" unicode="&#58894;" d="M184.32 484.306V702.87l218.453 0.11 0.11-218.563-218.563-0.11z m218.563 291.38H184.21a72.818 72.818 0 0 1-72.709-72.744V484.27a72.818 72.818 0 0 1 72.709-72.708h218.672a72.818 72.818 0 0 1 72.708 72.744V702.942a72.818 72.818 0 0 1-72.708 72.708zM184.32 47.39999999999998V265.962l218.453 0.11 0.11-218.563-218.563-0.11z m218.563 291.38H184.21a72.818 72.818 0 0 1-72.709-72.745v-218.672a72.818 72.818 0 0 1 72.709-72.708h218.672A72.818 72.818 0 0 1 475.59 47.39999999999998V266.03499999999997a72.818 72.818 0 0 1-72.708 72.709z m327.643 100.27L575.97 593.606l154.41 154.556 154.63-154.447L730.525 439.05z m205.965 205.965L781.863 799.644a72.818 72.818 0 0 1-102.819 0L524.415 645.052a72.199 72.199 0 0 1-21.226-51.264 72.199 72.199 0 0 1 21.226-51.555l154.629-154.665a72.709 72.709 0 0 1 102.819 0.036L936.49 542.233a72.745 72.745 0 0 1 0 102.819zM621.227 47.39999999999998V265.962l218.453 0.11 0.11-218.563-218.563-0.11z m218.562 291.38H621.117a72.818 72.818 0 0 1-72.708-72.745v-218.672a72.818 72.818 0 0 1 72.708-72.708H839.79a72.818 72.818 0 0 1 72.709 72.745V266.03499999999997a72.818 72.818 0 0 1-72.709 72.709z"  horiz-adv-x="1024" />

    
    <glyph glyph-name="mn_xiaoxi1_fill" unicode="&#58895;" d="M712.249 347.591a54.613 54.613 0 1 0 0 109.227 54.613 54.613 0 0 0 0-109.227m-200.249 0a54.613 54.613 0 1 0 0 109.227 54.613 54.613 0 0 0 0-109.227m-200.249 0a54.613 54.613 0 1 0-0.036 109.19 54.613 54.613 0 0 0 0.036-109.19M845.724 748.09H178.276c-36.81 0-66.774-31.275-66.774-69.687v-536.34c0-38.447 30.038-69.686 66.92-69.686h215.431c6.7 0 17.804-6.517 20.826-12.233l43.327-81.884 3.313-5.17c12.67-16.493 31.13-25.96 50.608-25.996h0.037c19.515 0 37.974 9.467 50.717 25.96l46.64 87.09c2.767 5.206 13.58 12.233 20.862 12.233h215.614c36.773 0 66.7 31.24 66.7 69.687v536.34c0 38.41-29.964 69.686-66.773 69.686"  horiz-adv-x="1024" />

    
    <glyph glyph-name="mn_dingdan" unicode="&#58896;" d="M184.32 19.984000000000037V747.98l-0.291 0.109 655.651-0.11 0.291-728.068-655.651 0.073zM839.971 820.907H184.03a72.818 72.818 0 0 1-72.527-72.927v-727.996a72.818 72.818 0 0 1 72.527-72.89H839.97a72.818 72.818 0 0 1 72.527 72.89V747.98a72.818 72.818 0 0 1-72.527 72.927zM657.636 493.227H366.364a36.409 36.409 0 0 1 0-72.818h291.272a36.409 36.409 0 0 1 0 72.818m0-182.045H366.364a36.409 36.409 0 0 1 0-72.818h291.272a36.409 36.409 0 0 1 0 72.818"  horiz-adv-x="1024" />

    
    <glyph glyph-name="mn_wode" unicode="&#58897;" d="M861.525 12.932999999999993l-697.225-0.039a2.99 2.99 0 0 0-1.825 0.854V157.75300000000004c0 7.107 7.184 18.136 14.68 21.166 1.281 0.543 84.235 36.739 181.986 61.244C409.2 252.707 463.066 262.26099999999997 512 262.26099999999997c44.467 0 93.13-7.884 139.344-18.758a1288.39 1288.39 0 0 0 196.433-64.973c6.447-2.64 13.748-13.709 13.748-20.777v-144.859zM377.277 630A125.169 125.169 0 0 0 502.485 754.86 125.208 125.208 0 0 0 627.732 630v-149.402A125.208 125.208 0 0 0 502.485 355.74a125.169 125.169 0 0 0-125.208 124.858V630zM878.186 249.99c-4.738 2.097-71.07 31.069-156.937 55.535a1072.383 1072.383 0 0 1-88.12 21.36c43.808 37.128 72.275 91.848 72.275 153.714V630a202.88 202.88 0 0 1-202.88 202.531c-111.848 0-202.919-90.682-202.919-202.53v-149.403c0-63.536 30.06-119.693 76.119-156.898-30.914-6.525-60.817-14.408-88.352-22.642a1333.361 1333.361 0 0 1-140.354-50.564c-35.496-14.253-62.216-54.138-62.216-92.741v-159.81l2.059-6.06c11.534-33.903 42.642-56.7 77.439-56.7h695.4a79.536 79.536 0 0 1 78.837 69.128l0.66 153.403c0 38.37-26.641 78.177-61.011 92.275z"  horiz-adv-x="1024" />

    
    <glyph glyph-name="mn_wode_fill" unicode="&#58898;" d="M878.186 254.54600000000005c-4.738 2.097-71.07 31.07-156.937 55.575a1072.383 1072.383 0 0 1-88.12 21.32c43.808 37.128 72.275 91.848 72.275 153.714V634.558a202.88 202.88 0 0 1-202.88 202.53c-111.848 0-202.919-90.682-202.919-202.53v-149.403c0-63.536 30.06-119.693 76.119-156.859-30.914-6.563-60.817-14.447-88.352-22.68a1333.361 1333.361 0 0 1-140.354-50.565c-35.496-14.253-62.216-54.138-62.216-92.74V2.5l2.059-6.059c11.534-33.904 42.642-56.662 77.439-56.662h695.4a79.536 79.536 0 0 1 78.837 69.129l0.66 153.402c0 38.332-26.641 78.139-61.011 92.236"  horiz-adv-x="1024" />

    
    <glyph glyph-name="mn_dianzhan" unicode="&#58899;" d="M861.707 466.393L775.345 63.41999999999996c-0.655-3.059-5.789-7.1-8.3-7.1l-437.09 0.182V493.227h3.277v1.201A200.504 200.504 0 0 1 512 693.476V711.6800000000001a36.445 36.445 0 0 0 72.818 0h2.33c7.209-37.32 13.617-121.169-27.161-159.18a36.409 36.409 0 0 1 24.83-63.06c5.28 0 10.414 1.53 15.293 3.787h239.206c8.447 0 15.219-2.658 19.151-7.5 3.75-4.66 4.915-11.542 3.24-19.334zM148.13 493.227h109.008v-436.689H147.91l0.219 436.689z m766.953 38.302c-17.731 21.954-45.366 34.515-75.767 34.515H651.592c26.36 76.46 6.116 165.006 4.951 169.884a35.207 35.207 0 0 1-5.607 12.124A109.008 109.008 0 0 1 548.41 820.87 109.045 109.045 0 0 1 439.8 717.687h-0.619v-24.211c0-70.27-57.162-127.432-127.43-127.432H148.13c-40.269 0-73.037-32.768-73.037-73.072v-436.397c0-40.305 32.586-73.073 72.636-73.073h619.315c36.81 0 71.726 28.4 79.517 64.626l86.362 403.01c6.262 29.31-0.218 58.582-17.84 80.39z"  horiz-adv-x="1024" />

    
    <glyph glyph-name="mn_dianzhan_fill" unicode="&#58900;" d="M915.083 531.529c-17.731 21.954-45.366 34.515-75.767 34.515H651.592c26.36 76.496 6.116 165.006 4.951 169.884a35.207 35.207 0 0 1-5.607 12.124A109.008 109.008 0 0 1 548.41 820.907 109.045 109.045 0 0 1 439.8 717.687h-0.619v-24.211a126.667 126.667 0 0 0-43.217-94.882c-18.205-16.166-40.85-27.052-66.01-30.693v-584.399h437.09c36.809 0 71.725 28.4 79.516 64.626l86.362 403.01c6.262 29.31-0.218 58.582-17.84 80.39M148.13 566.0450000000001c-40.269 0-73.037-32.768-73.037-73.072v-436.397c0-40.268 32.586-73.073 72.636-73.073h109.409V566.044H148.13z"  horiz-adv-x="1024" />

    
    <glyph glyph-name="py_weixinzhifu" unicode="&#58901;" d="M426 276.63300000000004a33.133 33.133 0 0 0-44.167 13.466l-2.467 4.934-90.833 199.266a13.967 13.967 0 0 0-1.867 6.733c0 9.2 7.367 16.567 16.6 16.567a17 17 0 0 0 9.8-3.067L420.5 438.5a49 49 0 0 1 44.2-4.9L970.532 658c-90.867 106.666-240 176-408.833 176C286 834.599 62 648.1990000000001 62 418.266c0-125.1 67.533-238.533 172.5-314.566 8.6-6.134 14.133-16.534 14.133-27 0-3.667-0.633-7.334-1.867-11l-22.7-84c-1.233-3.667-2.466-8-2.466-12.267 0-9.2 7.366-16.566 16.566-16.566 3.667 0 6.767 1.233 9.834 3.066L357.266 19.100000000000023c8 4.9 17.2 7.333 26.4 7.967 4.9 0 9.834-0.634 14.734-2.467 53.4-15.333 108.033-22.667 163.3-22.667 276.232 0 500.299 186.4 500.299 416.333 0 68.667-20.267 135.5-57.1 193.133l-575.8-332.333-3.066-2.433z"  horiz-adv-x="1137" />

    
    <glyph glyph-name="fk_qucheng" unicode="&#58902;" d="M118.25 834h787.5A56.25 56.25 0 0 0 962 777.75v-787.5A56.25 56.25 0 0 0 905.75-66h-787.5A56.25 56.25 0 0 0 62-9.75v787.5A56.25 56.25 0 0 0 118.25 834z m511.2-486l-39.15-24.975c35.775-47.25 68.175-92.475 96.525-135.675-64.8-8.1-179.55-18.225-342.9-31.05 49.275 47.925 97.875 122.175 145.8 223.425H811.7v47.25H536.975V554.55H768.5V601.8H536.975V709.125h-49.95V601.8H254.15v-47.25h232.875v-127.575h-275.4v-47.25h224.1c-60.75-121.5-120.15-197.775-178.2-229.5L266.3 110.39999999999998c140.4 8.1 288.9 20.25 445.5 36.45 12.15-20.25 23.625-40.5 34.425-60.075L787.4 115.79999999999995c-36.45 66.15-89.1 143.1-157.95 232.2z"  horiz-adv-x="1024" />

    
    <glyph glyph-name="fk_fancheng" unicode="&#58903;" d="M118.25 834h787.5A56.25 56.25 0 0 0 962 777.75v-787.5A56.25 56.25 0 0 0 905.75-66h-787.5A56.25 56.25 0 0 0 62-9.75v787.5A56.25 56.25 0 0 0 118.25 834zM260.9 701.025L227.825 669.3c47.925-39.15 85.725-76.275 112.725-110.025l35.1 34.425c-31.05 35.775-69.525 71.55-114.75 107.325zM651.725 103.64999999999998h157.95l10.8 46.575c-17.55-0.675-43.2-1.35-76.275-2.7-33.75 0-66.15-0.675-98.55-0.675a6671.25 6671.25 0 0 0-130.95 1.35c-39.15 1.35-69.525 6.75-89.775 16.2a168.863 168.863 0 0 0-51.975 43.2c-5.4 6.075-10.125 11.475-15.525 15.525V476.25h-141.75v-44.55H312.2v-205.2c-28.35-12.15-60.075-46.575-96.525-103.275l36.45-33.075c37.8 62.1 64.8 93.15 81 93.15 8.1 0 16.875-5.4 25.65-16.875 20.925-24.3 44.55-41.175 70.2-49.275 27-7.425 62.1-11.475 104.625-12.15 42.525-0.675 81.675-1.35 118.125-1.35z m112.725 599.4c-85.05-22.275-189-35.1-311.85-37.8v-148.5c-2.025-124.875-24.975-222.075-68.175-290.925l43.875-21.6c42.525 67.5 65.475 166.725 68.85 299.025h235.575a511.875 511.875 0 0 0-68.85-130.275A1468.125 1468.125 0 0 1 541.7 468.15l-28.35-34.425c43.875-31.05 84.375-62.775 122.175-96.525A542.7 542.7 0 0 0 486.35 219.75l29.025-38.475c60.75 33.75 112.05 75.6 154.575 124.2a1082.813 1082.813 0 0 0 107.325-117.45l32.4 38.475A1480.5 1480.5 0 0 1 698.3 341.92499999999995a570.6 570.6 0 0 1 83.025 168.75V545.1h-283.5l-0.675 77.625C603.8 625.425 701 638.25 788.075 661.2l-23.625 41.85z"  horiz-adv-x="1024" />

    
    <glyph glyph-name="mn_dianhua" unicode="&#58904;" d="M233.597 764.935c4.711-4.213 11.698-11.154 21.068-22.252 13.852-16.396 29.342-37.601 44.793-61.312 29.966-45.988 48.67-84.091 54.057-98.606-1.268-5.065-4.847-11.427-11.478-22.565-12.487-20.96-29.585-49.668-29.585-90.385 0-25.946 12.077-53.988 39.162-90.906 17.694-24.125 41.225-51.268 68.05-78.5 26.078-26.476 53.276-50.864 76.588-68.664 36.748-28.067 63.36-40.04 88.976-40.04 36.02 0 64.768 15.33 87.863 27.648 12.678 6.757 24.736 13.18 33.55 14.627 12.478-4.418 48.47-22.738 102.08-61.058 45.25-32.35 73.13-57.437 85.689-70.644-4.174-22.76-17.558-46.092-38.13-65.848-12.017-11.545-25.757-21.07-39.726-27.541-12.1-5.606-24.066-8.695-33.685-8.695-55.344 0-124.355 23.279-199.567 67.326-73.481 43.036-149.693 103.88-220.4 175.963-69.495 70.846-128.544 147.201-170.767 220.796-21.014 36.634-37.181 71.52-48.06 103.685-10.541 31.16-15.884 59.024-15.884 82.808 0 7.966 3.642 18.703 10.254 30.234 7.844 13.685 19.59 28.163 33.96 41.852 13.524 12.882 29.107 24.73 43.88 33.36 7.073 4.135 12.905 6.908 17.312 8.717m7.523 66.778c-52.008 0-176.836-94.456-176.836-180.941 0-252.804 435.125-714.483 718.585-714.483 78.025 0 176.845 83.817 176.845 180.955 0 33.255-202.848 180.942-249.66 180.942-48.11 0-83.217-42.569-124.827-42.569s-208.87 167.64-208.87 214.197c0 46.578 41.605 69.186 41.605 117.085C417.96 621.4970000000001 293.13 831.713 241.12 831.713z m0 0"  horiz-adv-x="1024" />

    
    <glyph glyph-name="im_dianhua1" unicode="&#58905;" d="M369.08 69.22799999999995v-1.186c-6.49 0-11.258-0.51-14.038-0.51h-3.295c-69.203 0-124.91 55.323-126.864 124.43-1.052 33.933 11.194 66.775 34.443 91.432 23.251 24.657 54.686 39.11 88.586 40.073 0.318 0 3.743 0.19 4.03 0.19 26.575 0 52.027-8.314 73.938-24.273 30.731-10.841 61.781 4.32 92.128 44.996 30.19 40.39 36.554 72.402 18.87 95.17-6.3 4.542-12.345 9.915-18.357 16.312-1.055 1.02-2.045 2.144-2.973 3.295-19.859 22.415-31.245 50.781-32.14 80.01-1.917 70.131 53.343 128.718 123.152 130.699 0.322 0 3.582 0.063 3.905 0.063 58.745 0 110.68-41.633 123.47-99.008 10.328-31.85 36.68-158.074-90.118-327.629C526.52 86.20399999999995 412.635 69.22799999999995 369.08 69.22799999999995z m-4.089 64.053c18.961-0.417 118.512 2.238 227.467 148.32 111.293 148.833 85.962 253.213 79.724 272.66-7.1 31.146-32.776 51.742-61.845 51.742-36.68-1.024-64.057-30.127-63.128-64.954 0.577-18.484 9.306-31.948 16.532-39.939 0.224-0.259 0.479-0.547 0.673-0.801 4.031-4.347 7.803-7.641 11.545-10.07 2.367-1.567 4.573-3.428 6.426-5.57 19.603-22.095 57.562-83.783-13.273-178.508-45.762-61.239-92.646-74.064-123.92-74.094-16.088 0-32.074 3.29-47.489 9.721a32.21 32.21 0 0 0-7.452 4.384c-7.965 6.264-21.076 13.75-38.41 13.75-18.959-0.547-34.536-7.515-46.02-19.7-11.508-12.248-17.586-28.274-17.072-45.092 0.956-34.376 28.62-61.21 62.931-61.21 0.16 0 0.198-0.03 0.065-0.065a45.964 45.964 0 0 0 3.264 0.42c3.424 0.03 6.78-0.224 9.982-0.994z m0 0M511.997-63.71500000000003c-60.18 0-118.547 11.74-173.487 34.86-16.282 6.876-23.922 25.613-17.046 41.894 6.844 16.306 25.613 23.887 41.892 17.075 47.045-19.795 97.056-29.871 148.674-29.871 211.609 0 383.755 172.146 383.755 383.761 0 211.605-172.146 383.753-383.755 383.753-211.607 0-383.752-172.148-383.752-383.753 0-72.344 20.241-142.791 58.52-203.776 9.37-14.969 4.862-34.702-10.076-44.07-14.967-9.403-34.695-4.895-44.098 10.079-44.736 71.212-68.34 153.436-68.34 237.768 0 246.847 200.835 447.71 447.712 447.71 246.883 0 447.717-200.834 447.717-447.71 0-246.856-200.833-447.72-447.716-447.72z m0 0"  horiz-adv-x="1024" />

    
    <glyph glyph-name="im_dingwei" unicode="&#58906;" d="M570.853 495.304c13.24 13.245 20.946 31.854 20.946 50.578 0 18.728-7.706 37.337-20.946 50.579-13.243 13.241-31.853 20.953-50.582 20.953-18.723 0-37.335-7.71-50.577-20.953-13.24-13.24-20.952-31.85-20.952-50.58 0-18.723 7.71-37.331 20.952-50.577 13.24-13.236 31.854-20.952 50.577-20.952 18.73 0 37.338 7.717 50.582 20.952z m0 0M515.259 64.55999999999995h0.005c13.894 0 26.985 6.44 35.298 17.377C627.4 182.98000000000002 802.949 427.167 802.949 549.091c0 156.091-128.8 282.62-287.69 282.62-158.882 0-287.677-126.528-287.677-282.62 0-121.924 175.555-366.128 252.383-467.16 8.316-10.935 21.4-17.371 35.294-17.371z m0 715.63c129.713 0 235.24-103.664 235.24-231.095 0-68.455-81.817-220.15-215.458-400.992-4.603-6.223-11.948-9.902-19.777-9.902-7.826 0-15.176 3.679-19.774 9.902-133.645 180.843-215.467 332.529-215.467 400.992 0 127.431 105.533 231.094 235.236 231.094z m0 0M871.353 110.32500000000005c-13.803 13.654-32.706 24.935-54.636 32.615-22.485 7.873-47.325 11.871-73.859 11.871l-3.32-0.03-3.97-0.344c-12.231-1.198-21.819-11.394-22.3-23.71-0.279-6.62 2.061-12.951 6.558-17.818 4.502-4.87 10.618-7.694 17.234-7.955l29.052-1.14 1.6 0.053c42.362-5.327 63.414-23.299 68.884-28.7 6.294-6.218 10.207-13.162 10.207-18.12 0-8.502-17.826-29.147-85.294-46.464-62.448-16.013-150.552-24.841-248.082-24.841-97.615 0-186.237 8.923-249.527 25.107-68.575 17.548-86.699 38.233-86.699 46.716 0 12.132 3.776 19.358 13.453 25.788 13.036 8.657 34.643 14.34 63.749 16.907 0.97-0.15 1.96-0.24 4.674-0.24 0.147 0 28.625 1.632 28.625 1.632 13.66 0.809 24.128 12.56 23.338 26.213-0.774 13.308-11.954 23.337-26.007 23.337-0.025 0-4.22-0.24-4.198-0.24-54.1-1.174-92.545-9.814-117.537-26.418-23.577-15.67-35.539-38.203-35.539-66.974 0-23.41 13.26-43.927 39.424-60.983 20.13-13.132 48.548-24.446 84.465-33.631 67.201-17.201 160.166-26.664 261.778-26.664 101.55 0 194.024 9.373 260.362 26.402 35.53 9.106 63.65 20.384 83.583 33.515 25.79 16.986 38.865 37.457 38.865 60.835 0.002 18.77-8.598 37.198-24.883 53.28z m0 0"  horiz-adv-x="1024" />

    
    <glyph glyph-name="mn_dunpai_fill" unicode="&#58907;" d="M834.869 720.966c-7.668-0.278-15.222-0.385-22.612-0.385h-0.032c-194.413 0-280.058 89.102-280.771 89.87L512.027 831.72l-19.454-21.268c-0.848-0.932-91.22-96.715-303.444-89.486l-27.255 0.93v-403.924c0-105.752 35.307-260.001 340.618-378.013l9.509-3.68 9.504 3.68C826.815 57.97000000000003 862.123 212.22000000000003 862.123 317.972V721.896l-27.254-0.93zM477.186 198.22000000000003L273.372 378.81899999999996l54.153 43.882 108.368-79.957s149.63 154.798 294.097 227.034l20.636-23.245s-180.57-149.635-273.44-348.312z"  horiz-adv-x="1024" />

    
    <glyph glyph-name="im_erweimasaomiao" unicode="&#58908;" d="M924.845 349.56500000000005H98.985c-19.014 0-34.444 15.43-34.444 34.435 0 19.015 15.43 34.446 34.445 34.446h825.86c19.042 0 34.445-15.43 34.445-34.446-0.005-19.006-15.402-34.435-34.446-34.435zM856.4-63.722999999999956H649.761c-19.042 0-34.44 15.403-34.44 34.444 0 19.045 15.398 34.443 34.44 34.443h206.64c19.01 0 34.44 15.43 34.44 34.434V211.80200000000002c0 19.043 15.392 34.44 34.446 34.44 19.043 0 34.43-15.397 34.43-34.44V39.60000000000002c0.005-56.96-46.353-103.322-103.317-103.322z m-516.598 0H167.598c-56.958 0-103.317 46.364-103.317 103.322V211.80200000000002c0 19.043 15.431 34.44 34.436 34.44 19.015 0 34.444-15.397 34.444-34.44V39.60000000000002c0-19.005 15.461-34.434 34.437-34.434h172.198c19.016 0 34.446-15.398 34.446-34.443 0-19.043-15.43-34.445-34.44-34.445z m-241.08 585.49c-19.01 0-34.436 15.426-34.436 34.436V728.402c0 56.97 46.354 103.322 103.312 103.322h172.198c19.016 0 34.446-15.43 34.446-34.44 0-19.005-15.43-34.435-34.446-34.435H167.598c-18.976 0-34.437-15.464-34.437-34.446v-172.198c0-19.012-15.43-34.437-34.44-34.437z m826.565 0c-19.054 0-34.445 15.426-34.445 34.436V728.402c0 18.978-15.426 34.446-34.442 34.446H649.761c-19.042 0-34.44 15.43-34.44 34.436 0 19.009 15.398 34.44 34.44 34.44h206.64c56.963 0 103.317-46.354 103.317-103.323v-172.198c0.004-19.01-15.388-34.435-34.43-34.435z m0 0"  horiz-adv-x="1024" />

    
    <glyph glyph-name="mn_dunpai" unicode="&#58909;" d="M512.002-63.72000000000003l-9.509 3.68C197.181 57.97000000000003 161.875 212.22000000000003 161.875 317.97299999999996V721.896l27.255-0.93c212.225-7.228 302.596 88.554 303.444 89.486l19.453 21.268 19.427-21.268c0.713-0.769 86.358-89.871 280.771-89.871h0.032c7.39 0 14.944 0.107 22.612 0.385l27.255 0.93v-403.923c0-105.753-35.307-260.002-340.618-378.013l-9.504-3.68zM214.573 667.8779999999999v-349.905c0-56.875 0.03-207.029 297.429-325.147 297.426 118.118 297.426 268.272 297.426 325.147V667.8779999999999c-164.691 0.634-259.456 59.24-297.426 89.518-38-30.247-132.766-88.829-297.429-89.518z m61.382-306.08l54.154 43.883 108.368-79.957s149.63 154.797 294.098 227.034l20.636-23.246S572.641 379.876 479.77 181.20000000000005L275.955 361.79999999999995z m0 0"  horiz-adv-x="1024" />

    
    <glyph glyph-name="im_fenxiang_a" unicode="&#58910;" d="M820.618 74.59699999999998c0-24.365-19.769-44.136-44.136-44.136H180.64c-24.36 0-44.136 19.77-44.136 44.136V626.3050000000001c0 24.36 19.775 44.136 44.136 44.136h286.887v66.202H136.505c-36.544 0-66.203-29.639-66.203-66.203V30.460000000000036c0-36.544 29.659-66.203 66.203-66.203H820.62c36.569 0 66.204 29.659 66.204 66.203v220.68H820.62v-176.544zM944.003 615.9300000000001L765.89 794.044c-12.93 12.931-33.877 12.931-46.807 0-12.93-12.91-12.93-33.877 0-46.808l101.955-101.954c-232.443 4.434-446.282-158.783-520.895-382.092l61.237-29.394C427.19 432.765 646.412 599.489 856.06 575.788l-136.404-136.38c-12.8-12.825-12.8-33.61 0-46.434 12.82-12.821 33.59-12.821 46.43 0l172.708 172.729c1.742 1.171 3.66 1.898 5.18 3.444 12.958 12.887 12.958 33.852 0.028 46.782z m0 0"  horiz-adv-x="1024" />

    
    <glyph glyph-name="im_fenlei" unicode="&#58911;" d="M64.57 742.412h894.86v-92.076H64.57v92.076z m0 0M64.57 430.036h894.86v-92.077H64.57v92.077z m0 0M64.57 117.66700000000003h894.86v-92.078H64.57v92.078z m0 0"  horiz-adv-x="1024" />

    
    <glyph glyph-name="im_faxian" unicode="&#58912;" d="M64.289 369.48800000000006v28.01c0.256 1.962 0.522 3.925 0.76 5.886 2.852 23.621 4.168 47.55 8.832 70.812 14.084 70.288 43.997 133.499 88.957 189.414 48.499 60.323 108.581 105.308 180.201 134.7 42.824 17.572 87.364 28.182 133.58 31.547 7.625 0.554 15.243 1.221 22.865 1.837h25.009c2.3-0.265 4.595-0.68 6.903-0.77 40.86-1.628 80.751-8.745 119.567-21.525 82.523-27.165 151.68-74.25 206.786-141.313 58.519-71.214 91.907-153.004 100.166-244.949 3.842-42.792 1.497-85.239-6.865-127.334-9.789-49.266-27.447-95.579-53.038-138.808-42.437-71.685-100.252-127.66-173.5-167.203-75.266-40.635-155.897-57.844-241.328-52.555-43.024 2.663-84.96 10.9-125.158 26.3-124.023 47.53-211.672 132.776-262.124 255.747-16.796 40.937-26.383 83.738-29.725 127.897-0.563 7.444-1.256 14.874-1.888 22.307z m447.885-377.884c217.75 0.728 392.277 176.014 392.002 392.37-0.274 217.232-175.272 391.647-391.826 391.89-216.513 0.243-392.081-175.196-392.257-391.963-0.171-216.39 175.598-392.261 392.081-392.297z m0 0M288.708 132.188c-21.043 0.597-34.328 21.292-25.612 40.754 14.125 31.517 28.548 62.91 42.84 94.356 31.539 69.383 63.167 138.742 94.519 208.214 4.298 9.52 10.57 15.977 20.138 20.31 100.377 45.421 200.65 91.092 300.961 136.666 18.638 8.473 37.165 0.19 41.438-18.442 1.688-7.36-0.272-14.07-3.302-20.73-41.4-90.97-82.745-181.961-124.107-272.943-4.473-9.833-9.082-19.617-13.394-29.516-3.336-7.643-8.644-12.974-16.266-16.432-101.55-46.103-203.061-92.307-304.622-138.381-3.966-1.8-8.39-2.595-12.593-3.856zM679.18 551.462c-2.329-0.895-3.39-1.243-4.397-1.703-73.96-33.603-147.924-67.19-221.8-100.965-2.462-1.123-4.74-3.87-5.903-6.41-27.994-61.244-55.83-122.566-83.696-183.876-6.034-13.28-12.062-26.574-18.61-40.99 2.804 1.132 4.534 1.756 6.204 2.516 73.08 33.203 146.17 66.393 219.17 99.768 2.656 1.211 5.317 3.877 6.539 6.532 18.854 41.024 37.468 82.171 56.158 123.272 15.247 33.54 30.512 67.075 46.335 101.856z m0 0M539.898 383.554c-0.133-15.519-12.82-27.806-28.395-27.497-15.374 0.303-27.42 12.591-27.403 27.955 0.023 15.388 12.831 28.1 28.15 27.934 15.408-0.17 27.79-12.874 27.648-28.392z m0 0"  horiz-adv-x="1024" />

    
    <glyph glyph-name="im_fankui" unicode="&#58913;" d="M767.41-63.702H190.483c-53.059 0-96.123 43.067-96.123 96.128V673.26c0 53.056 43.064 96.122 96.123 96.122h448.585c17.745 0 32.043-14.297 32.043-32.04 0-17.746-14.3-32.043-32.043-32.043H190.483c-17.57 0-32.042-14.47-32.042-32.04v-640.835c0-17.745 14.472-32.044 32.042-32.044h576.752c17.745 0 32.043 14.3 32.043 32.044v512.84c0 17.742 14.298 32.04 32.04 32.04 17.745 0 32.043-14.298 32.043-32.04V32.60000000000002c0.17-53.063-43.066-96.3-95.951-96.3z m0 0M579.12 449.138c-8.268 0-16.366 3.1-22.738 9.476a31.916 31.916 0 0 0 0 45.306L874.902 822.27a31.914 31.914 0 0 0 45.305 0 31.916 31.916 0 0 0 0-45.306l-318.52-318.52c-6.2-6.205-14.47-9.305-22.567-9.305z m0 0M446.817 449.138h-192.25c-17.74 0-32.041 14.298-32.041 32.043 0 17.741 14.3 32.04 32.041 32.04h192.25c17.747 0 32.043-14.299 32.043-32.04-0.001-17.745-14.297-32.043-32.043-32.043z m0 0M639.242 256.88800000000003H254.567c-17.74 0-32.041 14.298-32.041 32.043 0 17.742 14.3 32.04 32.041 32.04h384.5c17.746 0 32.044-14.298 32.044-32.04 0-17.745-14.298-32.043-31.869-32.043z m0 0"  horiz-adv-x="1024" />

    
    <glyph glyph-name="im_fenxiang_c" unicode="&#58914;" d="M764.238 211.97699999999998c-39.914 0-75.959-16.727-101.37-43.47L389.97 338.80600000000004c5.792 15.14 8.967 31.542 8.967 48.668 0 17.66-3.377 34.556-9.512 50.088l276.505 158.8c25.207-24.912 59.975-40.34 98.303-40.34 76.78 0 139.249 61.826 139.249 137.846S841.018 831.713 764.238 831.713c-76.74 0-139.212-61.825-139.212-137.846 0-17.886 3.46-34.981 9.748-50.67L358.497 484.51c-25.231 25.18-60.19 40.804-98.77 40.804-76.739 0-139.212-61.86-139.212-137.845 0-76.02 62.472-137.844 139.213-137.844 39.172 0 74.605 16.1 99.925 41.963l273.606-170.744c-5.325-14.597-8.234-30.323-8.234-46.711 0-76.02 62.467-137.845 139.207-137.845 76.78 0 139.249 61.82 139.249 137.845 0 76.02-62.468 137.845-139.249 137.845h0.006z m0 563.756c45.62 0 82.698-36.697 82.698-81.866 0-45.164-37.083-81.904-82.698-81.904-45.585 0-82.697 36.74-82.697 81.904 0 45.165 37.112 81.866 82.697 81.866z m-504.51-470.158c-45.58 0-82.658 36.733-82.658 81.9 0 45.128 37.079 81.864 82.659 81.864 26.08 0 49.371-12.037 64.54-30.774a27.766 27.766 0 0 1 2.218-4.786 28.008 28.008 0 0 1 5.693-6.89 80.667 80.667 0 0 0 10.252-39.415c0-15.032-4.135-29.123-11.299-41.243a27.343 27.343 0 0 1-1.871-2.588c-0.552-0.864-1.051-1.75-1.494-2.644-14.942-21.381-39.866-35.424-68.04-35.424z m504.51-313.308c-45.585 0-82.697 36.705-82.697 81.865a80.79 80.79 0 0 0 9.752 38.537 28.053 28.053 0 0 1 2.58 3.443 27.65 27.65 0 0 1 2.298 4.46c14.937 21.403 39.873 35.462 68.068 35.462 45.615 0 82.698-36.735 82.698-81.9 0-45.163-37.079-81.864-82.698-81.864v-0.003z m0 0"  horiz-adv-x="1024" />

    
    <glyph glyph-name="yk_wode_fill" unicode="&#58915;" d="M511.982 831.722c-246.879 0-447.73-200.85-447.73-447.727 0-51.07 8.647-101.22 25.697-149.056 16.432-46.097 40.307-89.119 70.957-127.863 12.08-15.328 24.668-29.461 37.418-42 84.409-83.056 195.8-128.798 313.658-128.798 61.086 0 120.343 12.18 176.122 36.202 53.812 23.174 102.038 56.292 143.339 98.427 12.124 12.36 24.08 26.318 36.556 42.672 60.02 78.81 91.746 172.318 91.746 270.412 0.001 246.88-200.865 447.731-447.763 447.731zM702.88 488.193c0 102.438-84.02 185.778-187.294 185.778-50.023 0-97.047-19.314-132.41-54.384-35.373-35.083-54.854-81.747-54.854-131.394 0-58.318 27.714-113.166 74.523-148.252-45.217-14.09-86.987-36.32-124.251-66.146-37.31-29.86-68.253-65.83-92.053-106.99-43.317 64.631-66.175 139.587-66.175 217.189 0 215.923 175.679 391.587 391.617 391.587 215.923 0 391.589-175.664 391.589-391.587 0-75.343-21.563-148.405-62.414-211.694-23.946 39.804-54.632 74.565-91.28 103.396-36.619 28.805-77.528 50.363-121.697 64.146 46.918 35.08 74.699 89.964 74.699 148.351z"  horiz-adv-x="1024" />

    
    <glyph glyph-name="im_fenxiang_b" unicode="&#58916;" d="M92.247 5.159999999999968c-3.392 0-6.781 0-10.17 3.389-13.554 6.776-20.33 20.33-16.943 33.883 57.608 294.811 233.816 481.18 511.68 532.01V733.708c0 10.166 6.776 23.72 16.942 27.107 10.165 3.387 23.718 3.387 30.5-6.777l328.69-328.694c6.78-6.778 6.78-13.555 6.78-20.331 0-6.78-3.393-13.558-10.169-20.335L620.863 55.985000000000014c-6.776-6.777-20.33-10.165-30.496-6.777-10.164 3.39-16.942 13.553-16.942 27.111V238.97000000000003c-206.701-3.388-352.415-74.548-457.46-223.645-6.777-6.775-16.941-10.164-23.718-10.164zM631.034 665.9300000000001v-115.208c0-13.555-10.171-27.111-23.725-30.5-267.698-37.271-396.465-203.317-457.46-372.743 111.825 105.043 257.534 152.487 450.684 152.487 16.94 0 27.11-13.556 27.11-30.496v-121.99l257.53 257.533-254.14 260.917z m0 0"  horiz-adv-x="1024" />

    
    <glyph glyph-name="im_gengduo_a" unicode="&#58917;" d="M64.284 384.001c0-27.69 11.401-55.212 30.98-74.791 19.58-19.581 47.098-30.983 74.794-30.983 27.688 0 55.211 11.403 74.791 30.983 19.578 19.579 30.98 47.101 30.98 74.791 0 27.694-11.403 55.211-30.98 74.791-19.58 19.58-47.104 30.981-74.791 30.981-27.696 0-55.215-11.4-74.794-30.98-19.579-19.58-30.98-47.1-30.98-74.792z m0 0M404.753 384.001c0-27.69 11.395-55.212 30.98-74.791 19.58-19.581 47.097-30.983 74.79-30.983 27.69 0 55.21 11.403 74.793 30.983 19.578 19.579 30.977 47.101 30.977 74.791 0 27.694-11.399 55.211-30.977 74.791-19.584 19.58-47.102 30.981-74.792 30.981-27.694 0-55.212-11.4-74.792-30.98-19.584-19.58-30.98-47.1-30.98-74.792z m0 0M748.17 384.001c0-27.69 11.401-55.212 30.98-74.791 19.58-19.581 47.098-30.983 74.792-30.983 27.689 0 55.21 11.403 74.792 30.983 19.58 19.579 30.98 47.101 30.98 74.791 0 27.694-11.4 55.211-30.98 74.791-19.581 19.58-47.103 30.981-74.792 30.981-27.693 0-55.211-11.4-74.792-30.98-19.58-19.58-30.98-47.1-30.98-74.792z m0 0"  horiz-adv-x="1024" />

    
    <glyph glyph-name="yk_wode" unicode="&#58918;" d="M511.982 831.722c-246.879 0-447.73-200.85-447.73-447.727 0-51.07 8.647-101.22 25.697-149.056 16.432-46.097 40.307-89.119 70.957-127.863 12.08-15.328 24.668-29.461 37.418-42 84.409-83.056 195.8-128.798 313.658-128.798 61.086 0 120.343 12.18 176.122 36.202 53.812 23.174 102.038 56.292 143.339 98.427 12.124 12.36 24.08 26.318 36.556 42.672 60.02 78.81 91.746 172.318 91.746 270.412 0.001 246.88-200.865 447.731-447.763 447.731z m3.604-213.898c72.318 0 131.154-58.154 131.154-129.637 0-71.473-58.836-129.62-131.154-129.62-72.302 0-131.122 58.147-131.122 129.62 0 71.483 58.82 129.637 131.122 129.637z m0-316.79c122.21 0 232.436-67.811 288.293-177.17-74.585-83.571-180.82-131.44-291.896-131.44-108.485 0-212.995 46.014-287.166 126.341 54.135 110.81 167.98 182.27 290.77 182.27zM702.88 488.193c0 102.438-84.02 185.778-187.294 185.778-50.023 0-97.047-19.314-132.41-54.384-35.373-35.083-54.854-81.747-54.854-131.394 0-58.318 27.714-113.166 74.523-148.252-45.217-14.09-86.987-36.32-124.251-66.146-37.31-29.86-68.253-65.83-92.053-106.99-43.317 64.631-66.175 139.587-66.175 217.189 0 215.923 175.679 391.587 391.617 391.587 215.923 0 391.589-175.664 391.589-391.587 0-75.343-21.563-148.405-62.414-211.694-23.946 39.804-54.632 74.565-91.28 103.396-36.619 28.805-77.528 50.363-121.697 64.146 46.918 35.08 74.699 89.964 74.699 148.351z"  horiz-adv-x="1024" />

    
    <glyph glyph-name="im_gouwuche" unicode="&#58919;" d="M351.72 64.17600000000004c-35.411 0-63.947-28.537-63.947-63.948s28.536-63.948 63.947-63.948 63.949 28.537 63.949 63.948c0 35.41-28.537 63.948-63.949 63.948z m0 0M799.527 64.17600000000004c-35.41 0-63.947-28.537-63.947-63.948s28.537-63.948 63.947-63.948c35.413 0 63.947 28.537 63.947 63.948 0.001 35.41-28.706 63.948-63.947 63.948z m0 0M862.964 96.14599999999996H343.468c-46.07 0-86.64 36.447-92.137 83.033l-54.32 381.796-30.771 178.434c-1.894 15.643-16.162 28.365-29.912 28.365H95.413c-17.705 0-31.973 14.268-31.973 31.976 0 17.703 14.268 31.971 31.973 31.971h40.744c46.586 0 87.668-36.44 93.343-83.028l30.77-177.751 54.492-383.512c1.717-14.785 15.298-27.336 28.707-27.336h519.495c17.702 0 31.97-14.267 31.97-31.97 0-17.71-14.269-31.978-31.97-31.978z m0 0M383.52 224.04200000000003c-16.673 0-30.594 12.722-31.8 29.571-1.376 17.533 11.863 33.001 29.565 34.207l433.886 31.976c15.985 0.172 29.397 12.546 31.118 26.814l50.364 288.11c1.205 10.656-1.719 22.518-8.076 29.74-4.128 4.641-9.287 7.046-15.302 7.046H319.232c-17.71 0-31.977 14.268-31.977 31.977 0 17.704 14.443 32.318 31.977 32.318h553.7c24.409 0 46.928-10.145 63.26-28.538 18.737-21.146 27.16-50.713 23.549-81.655l-50.368-288.28c-5.498-44.868-45.899-81.31-91.967-81.31l-431.474-31.8c-0.858 0-1.723-0.176-2.412-0.176z m0 0"  horiz-adv-x="1024" />

    
    <glyph glyph-name="hh_hao" unicode="&#58920;" d="M950.07 448.663c-28.509 48.54-81.231 77.517-141.03 77.517-39.847 0-82.883-0.738-115.69-1.466 8.793 52.36 21.094 134 21.094 180.84 0 41.686-14.298 75.547-41.347 97.922-22.017 18.213-51.795 28.243-83.852 28.243-64.61 0-115.222-58.67-115.222-133.566 0-51.828 0-56.062-18.835-82.062-62.548-86.45-112.592-125.337-128.15-125.337H147.207c-51.163 0-92.787-41.124-92.787-91.675v-371.07c0-50.564 41.625-91.701 92.787-91.701h122.402c18.094 0 32.814 14.601 32.814 32.551V425.716h24.582c58.726 0 131.12 82.925 181.51 152.49 31.133 42.992 31.133 63.955 31.133 119.976 0 18.83 5.524 36.43 15.553 49.56 9.33 12.214 21.43 18.939 34.073 18.939 27.165 0 59.545-10.599 59.545-61.098 0-62.898-26.64-206.962-26.9-208.326l-0.03-0.168c-1.792-9.804 0.935-19.699 7.43-27.09 6.392-7.374 14.895-11.272 24.588-11.272 0.447 0 0.898 0.008 1.352 0.024 0.434 0.01 1.19 0.03 2.247 0.058 32.571 0.88 95.566 2.359 151.533 2.359 36.134 0 67.656-16.912 84.323-45.242 13.211-22.441 13.985-48.108 2.07-68.657a612.396 612.396 0 0 0-8.833-14.715c-15.714-25.828-28.125-46.23-25.459-91.712 0.572-10.13 1.943-20.316 3.272-30.168l0.061-0.46c4.09-29.901 7.322-53.52-10.817-75.268-31.498-37.722-36.306-61.89-39.195-76.406l-0.144-0.76c-0.15-0.801-0.273-1.462-0.398-1.872-12.701-25.017-39.435-54.556-94.813-54.556H429.571c-18.095 0-32.815-14.59-32.815-32.524 0-17.947 14.721-32.547 32.815-32.547h289.534c69.638 0 124.41 32.656 154.241 91.97 3.232 6.458 4.486 12.707 5.498 17.748 1.925 9.506 4.562 22.529 25.386 47.505 36.43 43.657 30.003 90.911 25.316 125.365l-0.394 2.983c-1.048 7.911-2.041 15.382-2.482 22.73-1.487 25.352 2.248 31.484 16.173 54.334 2.837 4.67 6.054 9.962 9.514 15.915 23.748 40.981 22.891 91.015-2.286 133.832z m-829.996-49.584c0 14.67 12.171 26.606 27.132 26.606h89.588V1.32000000000005h-89.588c-14.96 0-27.132 11.946-27.132 26.632V399.079z"  horiz-adv-x="1024" />

    
    <glyph glyph-name="li_paibanleixing_b" unicode="&#58921;" d="M895.462 831.712H128.54c-35.297 0-63.908-28.613-63.908-63.909v-638.94c0-35.296 28.611-63.911 63.908-63.911h766.917c35.294 0 63.91 28.615 63.91 63.91v638.94c0 35.297-28.616 63.91-63.905 63.91z m0-702.85l-248.418 262.04-122.666-106.534-184.077 170.438-184.063-170.438-27.698-31.636V767.803h766.917l0.005-638.94zM732.901 507.257c54.035 0 97.879 43.923 97.879 98.032 0 54.151-43.845 98.048-97.88 98.048-54.059 0-97.883-43.897-97.883-98.048 0-54.115 43.824-98.032 97.884-98.032z m0 0M927.629-63.710000000000036H96.369c-17.454 0-31.737 14.28-31.737 31.74 0 17.455 14.283 31.732 31.737 31.732h831.26c17.454 0 31.738-14.277 31.738-31.733 0-17.46-14.284-31.74-31.738-31.74z m0 0"  horiz-adv-x="1024" />

    
    <glyph glyph-name="im_naozhong" unicode="&#58922;" d="M511.997 771.49c-224.864 0-401.543-176.679-401.543-401.539 0-224.873 176.68-401.543 401.543-401.543 224.868 0 401.542 176.67 401.542 401.543-0.001 224.86-176.674 401.54-401.542 401.54z m0-722.778c-176.673 0-321.23 144.557-321.23 321.24 0 176.67 144.557 321.226 321.23 321.226 176.678 0 321.234-144.556 321.234-321.226 0-176.684-144.556-321.24-321.234-321.24z m0 0M552.152 386.007V610.87c0 24.09-16.059 40.157-40.155 40.157-24.091 0-40.151-16.065-40.151-40.157v-240.919c0-8.037 8.026-24.102 8.026-32.128l128.496-128.496c8.034-8.033 16.06-8.033 32.125-8.033 16.059 0 24.09 0 32.125 8.033 16.058 16.065 16.058 40.156 0 56.216L552.152 386.007z m0 0M327.29 771.49c0 8.027-8.032 16.06-8.032 24.092-48.184 40.15-128.49 40.15-176.68 0L86.36 739.366c-40.149-48.19-40.149-128.497 0-176.68 8.031 0 16.064-8.033 24.092-8.033 40.158 96.374 120.464 176.68 216.838 216.837z m0 0M937.637 739.367l-56.222 56.216c-48.184 48.182-120.458 48.182-168.648 0-8.027-8.033-8.027-16.065-16.059-24.092 96.373-48.188 176.68-120.464 216.83-216.836 8.034 8.033 16.067 8.033 24.1 16.065 40.149 40.15 40.149 120.458-0.001 168.647z m0 0M198.794 32.64999999999998l-32.126-32.127c-16.056-16.059-16.056-40.15 0-56.216 8.034-8.027 16.067-8.027 32.126-8.027 16.065 0 24.09 0 32.124 8.027l32.124 32.124c16.06 16.065 16.06 40.158 0 56.22-16.058 16.06-48.183 16.06-64.248 0z m0 0M825.198 32.64999999999998c-16.058 16.06-40.15 16.06-56.216 0-16.058-16.06-16.058-40.154 0-56.219l32.125-32.124c8.033-8.027 16.065-8.027 32.124-8.027 16.065 0 24.091 0 32.124 8.027 16.06 16.065 16.06 40.156 0 56.216l-40.157 32.128z m0 0"  horiz-adv-x="1024" />

    
    <glyph glyph-name="im_luxiang" unicode="&#58923;" d="M942.313 481.207c-10.74 6.133-23.934 5.99-34.604-0.342l-85.71-50.966v22.589c0 56.956-46.347 103.304-103.304 103.304h-60.709c17.732 24.865 28.41 55.062 28.41 87.88 0 83.847-68.216 152.064-152.066 152.064-51.65 0-97.277-26.033-124.752-65.53-27.481 39.632-73.179 65.736-124.933 65.736-83.848 0-152.066-68.217-152.066-152.066 0-33.16 10.95-63.666 29.066-88.666-54.167-3.137-97.383-47.761-97.383-102.686v-377.166c0-56.952 46.348-103.3 103.306-103.3h551.126c56.957 0 103.304 46.348 103.304 103.3V131.17999999999995l85.71-50.969a34.237 34.237 0 0 1 17.598-4.854 34.36 34.36 0 0 1 17.006 4.513 34.418 34.418 0 0 1 17.424 29.923v341.49a34.414 34.414 0 0 1-17.423 29.923zM534.329 726.863c45.87 0 83.198-37.327 83.198-83.19 0-45.865-37.327-83.198-83.198-83.198-45.864 0-83.19 37.332-83.19 83.197 0 45.864 37.326 83.19 83.19 83.19z m-249.648 0.21c45.866 0 83.193-37.327 83.193-83.196 0-45.865-37.327-83.192-83.193-83.192-45.87 0-83.228 37.327-83.228 83.192 0 45.87 37.326 83.197 83.228 83.197z m468.45-651.714c0-19.005-15.427-34.432-34.436-34.432H167.6c-18.972 0-34.432 15.427-34.432 34.432v377.13c0 18.972 15.46 34.436 34.432 34.436h551.095c19.009 0 34.436-15.464 34.436-34.436v-377.13h0.001z m137.736 94.972l-54.128 32.197c-4.651 2.79-9.68 3.995-14.74 4.441V354.17999999999995c5.028 0.413 10.089 1.65 14.74 4.407l54.128 32.164v-220.42z m0 0"  horiz-adv-x="1024" />

    
    <glyph glyph-name="im_shanchu" unicode="&#58924;" d="M607.939 128.15999999999997c-17.684 0-31.978 14.293-31.978 31.977V511.92c0 17.685 14.294 31.984 31.978 31.984s31.982-14.299 31.982-31.984v-351.783c0-17.684-14.299-31.977-31.982-31.977z m0 0M416.061 128.15999999999997c-17.691 0-31.982 14.293-31.982 31.977V511.92c0 17.685 14.292 31.984 31.982 31.984 17.683 0 31.977-14.299 31.977-31.984v-351.783c-0.001-17.684-14.294-31.977-31.977-31.977z m0 0M927.74 671.821h-159.9v63.96c0 52.897-42.694 95.941-95.205 95.941h-320.54c-52.89 0-95.934-43.044-95.934-95.941v-63.96H96.259c-17.69 0-31.983-14.292-31.983-31.982 0-17.685 14.293-31.976 31.983-31.976h831.48c17.684 0 31.983 14.291 31.983 31.976 0 17.69-14.298 31.982-31.983 31.982z m-607.62 63.96c0 17.621 14.355 31.982 31.976 31.982h320.539c17.528 0 31.246-14.04 31.246-31.982v-63.96H320.119v63.96z m0 0M735.989-63.72199999999998H288.2c-52.891 0-95.936 43.043-95.936 95.941V512.4c0 17.655 14.328 31.982 31.978 31.982 17.656 0 31.98-14.327 31.98-31.982v-480.182c0-17.655 14.36-31.982 31.978-31.982H735.99c17.65 0 31.978 14.327 31.978 31.982V511.092c0 17.65 14.298 31.978 31.98 31.978 17.685 0 31.984-14.327 31.984-31.978v-478.874c-0.001-52.897-43.05-95.94-95.942-95.94z m0 0"  horiz-adv-x="1024" />

    
    <glyph glyph-name="li_paibanleixing_a" unicode="&#58925;" d="M271.026 815.01h-165.4c-22.798 0-41.343-18.517-41.343-41.327V608.24c0-22.77 18.546-41.327 41.343-41.327h165.4c22.809 0 41.344 18.558 41.344 41.327V773.683c-0.001 22.81-18.535 41.327-41.344 41.327z m-6.369-194.498c0-3.213-2.647-5.875-5.903-5.875H117.898c-3.256 0-5.909 2.664-5.909 5.875v140.9c0 3.253 2.653 5.874 5.909 5.874h140.856c3.256 0 5.903-2.622 5.903-5.873v-140.901zM271.026 508.05h-165.4c-22.798 0-41.343-18.517-41.343-41.327V301.28c0-22.77 18.546-41.33 41.343-41.33h165.4c22.809 0 41.344 18.56 41.344 41.33V466.723c-0.001 22.81-18.535 41.326-41.344 41.326z m-6.369-194.498c0-3.214-2.647-5.877-5.903-5.877H117.898c-3.256 0-5.909 2.664-5.909 5.877V454.45c0 3.253 2.653 5.874 5.909 5.874h140.856c3.256 0 5.903-2.622 5.903-5.874v-140.9zM271.026 201.08799999999997h-165.4c-22.798 0-41.343-18.517-41.343-41.327v-165.443c0-22.77 18.546-41.328 41.343-41.328h165.4c22.809 0 41.344 18.558 41.344 41.328V159.76c-0.001 22.81-18.535 41.327-41.344 41.327z m-6.369-194.499c0-3.212-2.647-5.876-5.903-5.876H117.898c-3.256 0-5.909 2.665-5.909 5.876V147.49c0 3.252 2.653 5.875 5.909 5.875h140.856c3.256 0 5.903-2.623 5.903-5.875v-140.9zM918.373 815.01H412.445c-22.798 0-41.344-18.517-41.344-41.327V608.24c0-22.77 18.547-41.327 41.344-41.327h505.928c22.808 0 41.343 18.558 41.343 41.327V773.683c0 22.81-18.535 41.327-41.343 41.327z m-6.368-194.498c0-3.213-2.649-5.875-5.905-5.875H424.717c-3.257 0-5.91 2.664-5.91 5.875v140.9c0 3.253 2.653 5.874 5.91 5.874H906.1c3.256 0 5.905-2.622 5.905-5.873v-140.901zM918.373 508.05H412.445c-22.798 0-41.344-18.517-41.344-41.327V301.28c0-22.77 18.547-41.33 41.344-41.33h505.928c22.808 0 41.343 18.56 41.343 41.33V466.723c0 22.81-18.535 41.326-41.343 41.326z m-6.368-194.498c0-3.214-2.649-5.877-5.905-5.877H424.717c-3.257 0-5.91 2.664-5.91 5.877V454.45c0 3.253 2.653 5.874 5.91 5.874H906.1c3.256 0 5.905-2.622 5.905-5.874v-140.9zM918.373 201.08799999999997H412.445c-22.798 0-41.344-18.517-41.344-41.327v-165.443c0-22.77 18.547-41.328 41.344-41.328h505.928c22.808 0 41.343 18.558 41.343 41.328V159.76c0 22.81-18.535 41.327-41.343 41.327z m-6.368-194.499c0-3.212-2.649-5.876-5.905-5.876H424.717c-3.257 0-5.91 2.665-5.91 5.876V147.49c0 3.252 2.653 5.875 5.91 5.875H906.1c3.256 0 5.905-2.623 5.905-5.875v-140.9z"  horiz-adv-x="1024" />

    
    <glyph glyph-name="im_shuaxin_a" unicode="&#58926;" d="M395.176 53.09000000000003C241.87599999 82.69200000000001 130.873 223.29999999999995 130.873 384c0 181.843 146.956 329.855 329.851 329.855 182.9 0 329.859-149.07 330.912-329.856l-103.607 0 136.38-233.643L959.733 384l-102.547 0c0 217.789-176.557 396.459-396.463 396.459-219.9 0-396.458-178.67100001-396.45799999-396.459 0-197.7 140.608-366.853 330.90999999-396.457L395.175 53.09000000000003z m0 0"  horiz-adv-x="1024" />

    
    <glyph glyph-name="im_shezhi" unicode="&#58927;" d="M512.003 523.905c-77.282 0-139.908-62.626-139.908-139.907 0-77.28 62.626-139.913 139.908-139.913 77.279 0 139.911 62.633 139.911 139.913-0.005 77.28-62.633 139.907-139.911 139.907z m0-223.849c-46.372 0-83.944 37.57-83.944 83.942 0 46.348 37.572 83.948 83.944 83.948 46.375 0 83.946-37.6 83.946-83.948 0-46.372-37.575-83.942-83.946-83.942zM869.456 507.95l-6.56 2.133a377.293 377.293 0 0 1-13.585 32.953l3.09 6.07c14.84 17.814 22.899 40.031 22.899 63.533 0 26.585-10.33 51.587-29.13 70.363l-35.194 35.165c-18.801 18.775-43.78 29.134-70.34 29.134-23.494 0-45.684-8.088-63.528-22.927l-6.04-3.06a371.797 371.797 0 0 1-32.988 13.58l-2.156 6.586c-4.647 50.526-47.327 90.232-99.056 90.232h-49.735c-51.78 0-94.408-39.706-99.056-90.285l-2.133-6.503a370.026 370.026 0 0 1-32.87-13.554l-6.368 3.168c-17.76 14.731-39.949 22.765-63.342 22.765-26.56 0-51.533-10.359-70.334-29.1l-35.198-35.2c-18.802-18.77-29.13-43.776-29.13-70.362 0-23.42 8.035-45.605 22.79-63.395l3.112-6.315c-4.969-10.63-9.45-21.561-13.466-32.71l-6.803-2.293c-50.445-4.781-90.041-47.387-90.041-99.058v-49.734c0-51.671 39.596-94.278 90.04-99.058l6.83-2.293a369.479 369.479 0 0 1 13.47-32.713l-3.14-6.364c-14.757-17.793-22.792-39.956-22.792-63.369 0-26.59 10.33-51.538 29.13-70.338l35.195-35.168c18.806-18.825 43.778-29.154 70.34-29.154 23.392 0 45.58 8.03 63.372 22.785l6.333 3.148c10.657-5.001 21.59-9.487 32.713-13.478l2.294-6.851c4.785-50.39 47.385-89.988 99.056-89.988h49.735c51.677 0 94.277 39.596 99.056 89.988l2.294 6.85a376.792 376.792 0 0 1 32.793 13.529l6.122-3.084c17.816-14.812 40.058-22.899 63.505-22.899 26.56 0 51.534 10.33 70.335 29.154L846.172 85c18.802 18.8 29.13 43.749 29.13 70.338 0 23.503-8.088 45.744-22.927 63.559l-3.085 6.041c5.055 10.736 9.567 21.721 13.606 32.982l6.588 2.155c50.525 4.672 90.227 47.303 90.227 99.058v49.73c0.001 51.73-39.702 94.384-90.255 99.086z m34.375-148.435c0-27.08-21.92-48.997-48.97-48.997l-36.424-11.939c-6.972-25.084-16.806-48.86-29.322-71.019l17.271-34.075c19.129-19.101 19.129-50.118 0-69.27l-34.648-34.625c-9.566-9.567-22.08-14.346-34.598-14.346-12.54 0-25.086 4.779-34.649 14.346L668.36 106.86000000000001c-22.052-12.486-45.712-22.272-70.636-29.237l-12.243-36.538c0-27.027-21.942-48.94-48.997-48.94h-48.966c-27.05 0-49 21.913-49 48.94l-12.239 36.538c-24.81 6.912-48.42 16.694-70.393 29.075l-34.375-17.11c-9.565-9.562-22.105-14.345-34.65-14.345-12.514 0-25.031 4.783-34.591 14.346l-34.654 34.624c-19.124 19.155-19.124 50.17 0 69.27l17.11 34.376c-12.41 21.971-22.135 45.606-29.076 70.417l-36.508 12.247c-27.051 0-48.965 21.912-48.965 48.992v48.97c0 27.052 21.914 48.995 48.965 48.995l36.508 12.241c6.941 24.81 16.667 48.449 29.075 70.393l-17.11 34.35c-19.123 19.129-19.123 50.17 0 69.3l34.655 34.648a48.862 48.862 0 0 0 34.592 14.322c12.545 0 21.971-0.032 31.673-9.728l34.895-17.384c22.405 12.653 46.508 22.576 71.869 29.626l13.22 31.614c0 27.053 21.943 48.97 48.999 48.97h48.966c27.054 0 48.997-21.918 48.997-48.97l11.969-36.429c25.026-6.968 48.854-16.776 70.987-29.32l34.053 17.3c9.564 9.534 25.415 19.153 38.145 19.153 12.738 0 21.536-9.618 31.102-19.154l34.648-34.649c19.124-19.128 19.124-50.17 0-69.3l-17.247-34.105c12.547-22.129 22.326-45.931 29.328-70.961l36.394-11.917c27.05 0 48.97-21.938 48.97-48.994v-48.972z m0 0"  horiz-adv-x="1024" />

    
    <glyph glyph-name="im_sousuo_a" unicode="&#58928;" d="M802.523 148.03200000000004l-49.012-48.993L916.277-63.72000000000003l49.005 48.993-162.759 162.759z m0 0M454.996 831.719c-218.52 0-396.278-177.772-396.278-396.28 0-218.508 177.758-396.273 396.278-396.273 218.496 0 396.253 177.765 396.253 396.274-0.001 218.508-177.758 396.279-396.253 396.279z m326.985-396.285c0-180.313-146.686-327.005-326.985-327.005-180.318 0-327.004 146.692-327.004 327.005 0 180.325 146.686 327.011 327.004 327.011 180.292 0 326.985-146.687 326.985-327.01z m0 0"  horiz-adv-x="1024" />

    
    <glyph glyph-name="hh_huai" unicode="&#58929;" d="M952.383 453.192c-2.605 4.49-5.03 8.5-7.377 12.376l-2.173 3.598c-13.886 22.799-17.62 28.928-16.137 54.254 0.472 7.817 1.536 15.743 2.665 24.132l0.21 1.564c4.694 34.5 11.118 81.752-25.309 125.404-20.809 24.936-23.454 37.972-25.39 47.503-1.054 5.314-2.251 11.337-5.507 17.782-28.197 55.971-78.642 88.19-142.833 91.585v0.33H429.588c-18.092 0-32.812-14.604-32.812-32.551 0-17.933 14.72-32.521 32.812-32.521H719.13c55.255 0 82.019-29.471 94.773-54.47 0.122-0.421 0.241-1.032 0.387-1.764 0.073-0.372 0.15-0.753 0.212-1.043 2.875-14.427 7.688-38.572 39.18-76.324 18.099-21.698 14.887-45.344 10.82-75.288l-0.02-0.149c-1.345-9.946-2.736-20.232-3.313-30.433-2.666-45.513 9.746-65.913 25.46-91.743l0.065-0.106c3.222-5.169 6.001-9.797 8.764-14.61 11.916-20.55 11.142-46.216-2.071-68.662-16.664-28.33-48.188-45.243-84.325-45.243-55.964 0-118.964 1.48-151.535 2.363-1.058 0.027-1.813 0.047-2.247 0.057v0.001a37.58 37.58 0 0 1-1.354 0.024c-9.65 0-18.142-3.888-24.53-11.207-6.586-7.488-9.314-17.404-7.464-27.3 0.27-1.395 26.91-145.891 26.91-208.359 0-50.496-32.38-61.095-59.544-61.095-12.65 0-24.755 6.729-34.086 18.95-10.026 13.128-15.546 30.724-15.546 49.548 0 56.025 0 76.987-31.137 119.985-50.385 69.565-122.778 152.493-181.508 152.493h-24.615V799.14c0 17.947-14.721 32.548-32.815 32.548H147.185c-51.165 0-92.79-41.138-92.79-91.704v-371.05c0-50.548 41.625-91.675 92.79-91.675h179.862c15.563 0 65.611-38.889 128.156-125.346 18.836-26.023 18.836-30.254 18.836-82.058 0-74.902 50.613-133.574 115.228-133.574 32.06 0 61.84 10.026 83.851 28.234 27.053 22.373 41.35 56.24 41.35 97.939 0 46.845-12.3 128.48-21.09 180.834 26.593-0.598 72.224-1.458 115.685-1.458 59.773 0 112.495 28.975 141.036 77.513 25.173 42.81 26.028 92.844 2.284 133.849z m-832.33 286.765c0 14.686 12.171 26.63 27.132 26.63h89.59V342.27h-89.59c-7.353 0-14.244 2.846-19.405 8.015-4.993 5-7.737 11.586-7.727 18.559V739.957z"  horiz-adv-x="1024" />

    
    <glyph glyph-name="im_xiazai" unicode="&#58930;" d="M623.83 775.75c0.098-0.098 0.098-0.298 0.098-0.497V439.963h167.69c0.103 0 0.103-0.098 0.2-0.2v-0.298l-279.82-279.82-279.824 279.917v0.103c0.103 0.098 0.103 0.2 0.203 0.2H400.071V775.253c0 0.2 0.099 0.399 0.2 0.497h223.657m0 55.965H400.07c-30.883 0-55.964-25.583-55.964-56.462v-279.325H232.174c-22.686 0-43.067-13.892-51.664-34.778-8.696-20.884-3.894-45.068 12.091-61.163L472.422 120.07000000000005a55.953 55.953 0 0 1 39.575-16.392c14.293 0 28.683 5.5 39.574 16.392l279.82 279.819c15.992 15.991 20.788 40.273 12.097 61.26-8.694 20.886-29.083 34.778-51.67 34.778H679.891V775.253c0 30.878-25.085 56.462-55.964 56.462z m0 0M931.728-7.75H92.264c-15.488 0-27.98-12.49-27.98-27.976 0-15.497 12.492-27.989 27.98-27.989h839.464c15.495 0 27.986 12.492 27.986 27.989 0 15.485-12.492 27.977-27.986 27.977z m0 0"  horiz-adv-x="1024" />

    
    <glyph glyph-name="mn_xingxing" unicode="&#58931;" d="M969.637 497.646c-7.989 23.067-28.434 39.897-53.083 43.594l-239.908 35.686L572.32 793.474c-10.957 22.763-34.442 37.322-60.304 37.322-25.77 0-49.26-14.559-60.257-37.322l-104.32-216.55-239.955-35.685c-24.652-3.696-45.092-20.527-53.081-43.594-7.95-23.06-1.935-48.487 15.502-65.838L245.69 256.144l-40.801-243.56c-4.079-24.526 6.53-49.171 27.36-63.524 11.467-7.904 24.91-11.857 38.352-11.857a68.233 68.233 0 0 1 32.211 8.08l209.16 112.653 209.25-112.653c10.043-5.406 21.127-8.08 32.165-8.08 13.443 0 26.885 4 38.398 11.857 20.785 14.353 31.389 38.957 27.268 63.525L778.3 256.145l175.914 175.663c17.35 17.351 23.28 42.776 15.423 65.838z m-227.07-194.989l-29.29-29.242 6.786-40.806 40.755-243.09-210.747 113.385-38.096 20.532-38.094-20.532-210.793-113.425 40.762 243.13 6.826 40.806-29.288 29.242-174.374 174.028 287.273 42.682 117.688 255.68 105.227-218.26 18.506-38.316 42.049-6.267 239.176-35.52-174.365-174.027z m0 0"  horiz-adv-x="1024" />

    
    <glyph glyph-name="mn_zhuye" unicode="&#58932;" d="M950.655 376.00699999999995L531.392 823.982c-5.039 5.007-11.612 7.272-18.406 7.72h-5.135c-6.797-0.414-13.367-2.683-18.411-7.72L73.372 376.00699999999995c-11.582-11.611-10.874-31.07 1.597-43.543 0.19-0.195 0.413-0.258 0.608-0.415 5.55-5.966 13.236-9.73 21.818-9.73h94.334v-351.662c0-9.376 4.245-17.578 10.69-23.416 5.584-6.604 13.495-10.943 22.588-10.943h191.059c8.744 0 16.528 3.96 22.077 10.145 7.145 5.836 11.995 14.327 11.995 24.278v9.317c-0.156 0.896-0.54 1.69-0.54 2.649V178.08799999999997c0 8.805 7.145 15.952 15.95 15.952h93.059c8.801 0 15.946-7.146 15.946-15.952v-195.402c0-0.702-0.315-1.309-0.411-1.977v-9.989c0-9.951 4.847-18.44 11.994-24.278 5.553-6.185 13.338-10.145 22.08-10.145h191.06c9.094 0 17.005 4.34 22.588 10.943 6.475 5.838 10.684 14.04 10.684 23.416V322.32000000000005h94.336c8.714 0 16.463 3.924 22.013 10.082 0.034 0.027 0.098 0.064 0.132 0.092 12.471 12.413 13.171 31.903 1.626 43.513zM416.419 258.51c-16.844 0-30.498-14.292-30.498-31.9 0-0.735 0.35-1.34 0.384-2.073v-224.432H255.533V353.644c0 4.562-1.017 8.841-2.741 12.729-4.56 11.58-15.412 19.751-28.136 19.751h-55.514l323.906 351.432c15.755 15.763 19.684 15.826 34.706 0L854.467 386.09H799.66c-12.728 0-23.575-8.164-28.14-19.746-1.719-3.922-2.74-8.202-2.74-12.728v-353.541h-130.8V226.00300000000004c0 0.098-0.064 0.193-0.064 0.287 0 0.096 0.064 0.194 0.064 0.286 0 17.614-13.654 31.903-30.498 31.903H416.42v0.03z m0 0"  horiz-adv-x="1024" />

    
    <glyph glyph-name="mn_xingxing_fill" unicode="&#58933;" d="M969.637 497.646c-7.989 23.067-28.434 39.897-53.083 43.594l-239.908 35.686L572.32 793.474c-10.957 22.763-34.442 37.322-60.304 37.322-25.77 0-49.26-14.559-60.257-37.322l-104.32-216.55-239.955-35.685c-24.652-3.696-45.092-20.527-53.081-43.594-7.95-23.06-1.935-48.487 15.502-65.838L245.69 256.144l-40.801-243.56c-4.079-24.526 6.53-49.171 27.36-63.524 11.467-7.904 24.91-11.857 38.352-11.857a68.233 68.233 0 0 1 32.211 8.08l209.16 112.653 209.25-112.653c10.043-5.406 21.127-8.08 32.165-8.08 13.443 0 26.885 4 38.398 11.857 20.785 14.353 31.389 38.957 27.268 63.525L778.3 256.145l175.914 175.663c17.35 17.351 23.28 42.776 15.423 65.838z m-227.07-194.989"  horiz-adv-x="1024" />

    
    <glyph glyph-name="mn_shoucang_fill" unicode="&#58934;" d="M707.839 800.288c-77.046 0-148.69-38.651-195.835-102.384-47.128 63.751-118.756 102.384-195.846 102.384-138.89 0-251.885-123.539-251.885-275.406 0-90.602 40.47-154.153 73.007-205.222 94.55-148.323 332.28-332.91 342.351-340.695 9.701-7.5 21.043-11.253 32.36-11.253 11.339 0 22.663 3.753 32.35 11.253 10.086 7.783 247.832 192.37 342.354 340.695 32.547 51.069 73.032 114.62 73.032 205.222-0.001 151.867-113.007 275.406-251.888 275.406z"  horiz-adv-x="1024" />

    
    <glyph glyph-name="dv_shouji" unicode="&#58935;" d="M774.129 831.596h-524.26c-31.046 0-56.171-21.688-56.171-48.416v-798.36c0-26.733 25.125-48.417 56.171-48.417h524.26c31.047 0 56.166 21.684 56.172 48.417V783.182c0 26.726-25.125 48.414-56.172 48.414z m-262.13-839.821c-17.827 0-32.278 14.451-32.278 32.278S494.172 56.33000000000004 512 56.33000000000004s32.28-14.45 32.28-32.277-14.452-32.278-32.28-32.278z m262.13 106.038H249.87v636.95h524.26v-636.95z"  horiz-adv-x="1024" />

    
    <glyph glyph-name="zhekou" unicode="&#58936;" d="M291.456 831.62c43.706 0 87.413-0.15 131.123 0.061 24.603 0.112 45.42-8.275 65.469-22.72 19.255-13.874 35.237-30.748 51.752-47.219C670.06 631.75 800.136 501.576 930.25 371.43399999999997c30.13-30.13 38.005-75.036 19.027-112.616-4.537-8.987-10.717-17.62-17.82-24.754-89.683-90.13-179.605-180.025-269.6-269.839-37.16-37.09-98.573-37.334-135.683-0.291-140.73 140.502-281.48 280.984-421.637 422.051-17.07 17.178-32.292 36.924-37.63 61.832-1.476 6.892-2.314 14.06-2.327 21.103-0.149 90.34-0.165 180.683-0.071 271.02 0.06 51.048 39.124 90.955 90.18 91.524 45.58 0.508 91.174 0.108 136.76 0.108 0.006 0.018 0.006 0.035 0.006 0.049z m-0.175-60.617h-18.816c-38.468 0-76.946 0.09-115.419-0.046-19.14-0.066-32.106-12.53-32.124-31.002-0.096-90.328-0.102-180.658 0.114-270.983 0.01-5.012 1.156-10.768 3.792-14.886 6.265-9.768 12.75-19.75 20.888-27.91 138.759-139.178 277.79-278.085 416.766-417.052 16.49-16.49 38.33-16.424 54.902 0.15 88.271 88.26 176.292 176.775 265.034 264.556 15.21 15.048 15.21 41.211 0.066 56.24-115.75 114.892-230.634 230.66-346.381 345.554-29.122 28.91-55.515 60.719-89.242 84.981-8.992 6.473-17.47 10.535-28.478 10.481-43.698-0.209-87.4-0.083-131.102-0.083z m0 0M306.234 468.346c-66.877 0.221-121.252 54.878-120.953 121.574 0.3 66.636 54.61 120.569 121.287 120.45 67.36-0.126 121.096-54.42 120.785-122.034-0.303-66.105-54.921-120.206-121.119-119.99z m-0.018 60.718c33.428-0.102 60.712 27.014 60.748 60.36 0.035 33.038-27.062 60.311-60.06 60.454-33.53 0.144-60.736-26.626-61.064-60.083-0.325-33.183 26.958-60.623 60.376-60.731z m0 0"  horiz-adv-x="1024" />

    
    <glyph glyph-name="mn_shoucang" unicode="&#58937;" d="M707.839 800.288c-77.046 0-148.69-38.651-195.835-102.384-47.128 63.751-118.756 102.384-195.846 102.384-138.89 0-251.885-123.539-251.885-275.406 0-90.602 40.47-154.153 73.007-205.222 94.55-148.323 332.28-332.91 342.351-340.695 9.701-7.5 21.043-11.253 32.36-11.253 11.339 0 22.663 3.753 32.35 11.253 10.086 7.783 247.832 192.37 342.354 340.695 32.547 51.069 73.032 114.62 73.032 205.222-0.001 151.867-113.007 275.406-251.888 275.406zM840.7 354.71299999999997C750.705 213.48000000000002 511.989 29.01400000000001 511.989 29.01400000000001S273.298 213.48000000000002 183.271 354.71299999999997c-33.207 52.132-62.94 101.694-62.94 170.169 0 118.237 87.666 214.123 195.827 214.123 79.932 0 148.553-52.441 178.99-127.518v0.372h0.084c2.267-7.82 8.88-13.536 16.757-13.536 7.896 0 14.508 5.715 16.757 13.536h0.235c30.513 74.86 99.033 127.15 178.857 127.15 108.137 0 195.824-95.89 195.824-214.127 0-68.475-29.732-118.027-62.961-170.169z m0 0"  horiz-adv-x="1024" />

    
    <glyph glyph-name="mn_zhuyexuanzhong_fill" unicode="&#58938;" d="M950.655 376.00699999999995L531.392 823.982c-5.039 5.007-11.612 7.272-18.406 7.72h-5.135c-6.797-0.414-13.367-2.683-18.411-7.72L73.372 376.00699999999995c-11.582-11.611-10.874-31.07 1.597-43.543 0.19-0.195 0.413-0.258 0.608-0.415 5.55-5.966 13.236-9.73 21.818-9.73h94.334v-351.662c0-9.376 4.245-17.578 10.69-23.416 5.584-6.604 13.495-10.943 22.588-10.943h574.27c9.093 0 17.004 4.34 22.587 10.943 6.475 5.838 10.684 14.04 10.684 23.416V322.32000000000005h94.336c8.714 0 16.463 3.924 22.013 10.082 0.034 0.027 0.098 0.064 0.132 0.092 12.471 12.413 13.171 31.903 1.626 43.513zM611.201 17.740999999999985c0-8.428-6.834-15.261-15.262-15.261H428.06c-8.427 0-15.26 6.833-15.26 15.261V254.29999999999995c0 8.428 6.833 15.262 15.26 15.262h167.88c8.428 0 15.262-6.834 15.262-15.262v-236.558z"  horiz-adv-x="1024" />

    
    <glyph glyph-name="li_paibanleixing_c" unicode="&#58939;" d="M491.107 499.908c0-52.731-42.784-95.514-95.514-95.514h-235.79c-52.73 0.499-95.514 43.281-95.514 95.514v236.29c0 52.73 42.783 95.514 95.513 95.514h235.791c52.73 0 95.514-42.785 95.514-95.515v-236.29z m-54.724 236.29c0 22.387-17.904 40.296-40.291 40.296h-236.29c-22.387 0-40.296-17.909-40.296-40.297V499.91c0-22.388 17.91-40.292 40.296-40.292h235.791c22.387 0 40.296 17.904 40.296 40.292V736.197h0.494zM174.23 611.337c-7.462 0-13.929 5.968-13.929 13.929v24.872c0 38.305 25.366 71.633 60.686 71.633h86.064c7.457 0 13.927-5.97 13.927-13.93 0-7.458-5.97-13.929-13.927-13.929h-86.063c-21.39 0-32.83-23.875-32.83-44.27v-24.875c0-7.462-5.972-13.43-13.928-13.43z m-4.977-47.258c-3.481 0-6.963 1.49-9.947 3.976-2.486 2.492-3.98 6.47-3.98 9.955 0 3.482 1.494 6.964 3.98 9.948 4.97 4.97 14.426 4.97 19.398 0 2.491-2.491 3.981-5.972 3.981-9.948 0-3.484-1.49-6.966-3.981-9.456-2.487-2.985-5.968-4.475-9.45-4.475z m790.458-64.172c0-52.731-42.783-95.514-95.512-95.514H627.906c-52.73 0-95.512 42.783-95.512 95.514v236.29c0 52.73 42.781 95.514 95.512 95.514h236.29c52.73 0 95.513-42.785 95.513-95.515v-236.29h0.001z m-55.22 236.29c0 22.387-17.905 40.296-40.292 40.296H627.906c-22.385 0-40.296-17.909-40.296-40.297V499.91c0-22.388 17.911-40.292 40.296-40.292h236.29c22.388 0 40.293 17.904 40.293 40.292V736.197zM491.107 31.799999999999955c0-52.728-42.784-95.512-95.514-95.512h-235.79c-52.73 0-95.514 42.784-95.514 95.512V268.092c0 52.731 42.783 95.514 95.513 95.514h235.791c52.73 0 95.514-42.783 95.514-95.514v-236.291z m-54.724 236.291c0 22.388-17.904 40.297-40.291 40.297h-236.29c-22.387 0-40.296-17.909-40.296-40.297v-236.291c0-22.386 17.91-40.291 40.296-40.291h235.791c22.387 0 40.296 17.905 40.296 40.29V268.09299999999996h0.494zM959.71 31.801000000000045c0-52.728-42.783-95.512-95.512-95.512H627.906c-52.73 0-95.512 42.784-95.512 95.512V268.092c0 52.731 42.781 95.514 95.512 95.514h236.29c52.73 0 95.513-42.783 95.513-95.514v-236.291h0.001z m-55.22 236.291c0 22.388-17.905 40.297-40.292 40.297H627.906c-22.385 0-40.296-17.909-40.296-40.297v-236.291c0-22.386 17.911-40.291 40.296-40.291h236.29c22.388 0 40.293 17.905 40.293 40.29V268.09299999999996z m0 0"  horiz-adv-x="1024" />

    
    <glyph glyph-name="ln_fanhui_a" unicode="&#58940;" d="M758.429 89.17200000000003L417.637 384.25l340.767 295.087 12.099 152.639L253.495 384.25l517.009-447.717-12.075 152.64z m0 0"  horiz-adv-x="1024" />

    
    <glyph glyph-name="im_yanzhengma" unicode="&#58941;" d="M865.055 722.12L539.353 827.475c-17.763 5.657-37.032 5.657-54.799 0l-325.7-105.355c-27.664-8.928-46.225-34.47-46.225-63.55v-231.306c0-133.635 64.255-260.646 171.998-339.93l187.73-138.059c11.578-8.573 25.28-12.992 39.597-12.992 14.32 0 28.02 4.508 39.595 12.992l187.82 138.06c107.744 79.197 172 206.295 172 339.93V658.5699999999999c-0.09 29.08-18.648 54.622-46.314 63.55zM854.36 425.762c0-115.343-55.506-225.031-148.4-293.349L524.771-0.7859999999999445c-7.515-5.478-18.12-5.57-25.72 0L317.949 132.413c-92.983 68.318-148.4 178.006-148.4 293.35V648.848c0 9.368 6.01 17.677 14.937 20.504l314.21 101.645a42.463 42.463 0 0 0 13.258 2.12c4.513 0 8.929-0.706 13.264-2.12L839.34 669.3530000000001c8.926-2.827 14.938-11.136 14.938-20.504l0.088-223.087h-0.007z m-142.741 154.41H312.292a22.14 22.14 0 0 1-22.184-22.182c0-12.288 9.898-32.791 22.184-32.791h172.175v-320.397c0-12.29 15.202-22.189 27.487-22.189s28.374 9.899 28.374 22.189V525.1990000000001H711.62c12.284 0 22.183 20.503 22.183 32.79a22.143 22.143 0 0 1-22.184 22.183z m0 0"  horiz-adv-x="1024" />

    
    <glyph glyph-name="im_zuji" unicode="&#58942;" d="M869.712 237.68399999999997c-13.211 10.734-32.534 8.588-43.103-4.624-10.733-13.21-8.587-32.534 4.625-43.106 21.471-17.34 50.368-68.864 50.368-97.932 0-51.858-42.113-93.97-93.97-93.97-30.55 0-59.288 14.861-76.958 39.802-2.148 2.976-59.124 85.056-92.32 120.724-58.628 62.596-157.054 59.125-157.382 59.125-124.526 25.599-209.907 126.668-194.218 230.052 7.764 51.526 39.304 96.78 89.015 127.165 51.362 31.377 115.442 43.435 180.51 33.524 65.068-9.741 122.7-40.13 162.507-85.213 38.479-43.767 55.323-96.117 47.559-147.81-2.972-19.816-9.412-38.81-19.487-56.482-8.254-14.697-3.135-33.528 11.73-41.783 14.696-8.253 33.524-3.137 41.78 11.724 13.542 24.279 22.628 50.375 26.587 77.454 10.573 69.86-11.558 139.885-62.26 197.522-49.377 55.984-120.226 93.473-199.5 105.362-79.272 11.894-158.05-2.972-221.796-41.947-65.397-40.13-107.181-100.576-117.584-170.432-20.48-135.587 86.044-267.213 242.602-299.584 2.15-0.495 85.715 0.995 124.853-40.954 34.35-36.664 86.87-116.43 90.835-118.908 29.23-38.315 74.81-61.109 123.364-61.109 85.715 0 155.405 69.695 155.405 155.406 0.165 49.874-38.48 118.25-73.162 145.994zM81.125 584.004c0-33.855 27.578-61.435 61.434-61.435 33.856 0 61.438 27.58 61.438 61.435 0 33.853-27.582 61.436-61.438 61.436s-61.434-27.583-61.434-61.436z m200.16 88.852a45.922 45.922 0 0 0-29.725 10.899c-19.16 16.347-21.8 44.92-5.78 64.408 3.796 4.622 94.794 110.978 266.054 76.793 24.935-4.955 41.122-29.23 36.167-54.17-4.954-24.935-29.233-41.286-54.167-36.168-115.934 23.286-175.06-42.936-177.538-45.744-9.08-10.571-21.963-16.018-35.01-16.018z m0 0"  horiz-adv-x="1024" />

    
    <glyph glyph-name="ln_qianjin_a" unicode="&#58943;" d="M265.569 89.17200000000003l-12.075-152.638L770.503 384.25 253.495 831.976l12.098-152.639L606.362 384.25 265.569 89.17200000000003z m0 0"  horiz-adv-x="1024" />

    
    <glyph glyph-name="ln_jia_a" unicode="&#58944;" d="M959.723 446.807H574.806V831.723H449.193v-384.916H64.275v-125.613h384.918v-384.916h125.613V321.19399999999996h384.917V446.807z"  horiz-adv-x="1024" />

    
    <glyph glyph-name="ln_jian_a" unicode="&#58945;" d="M575.06 446.807H64.276v-125.613h895.447V446.807z"  horiz-adv-x="1024" />

    
    <glyph glyph-name="zy_shaixuan" unicode="&#58946;" d="M608.256-42.66700000000003c-17.696 0-32 14.304-32 32v480a31.912 31.912 0 0 0 8.256 21.44l208.8 234.496h-562.88l209.216-234.656a32.03 32.03 0 0 0 8.096-21.312v-288.768l50.848-41.152c13.76-11.136 15.872-31.264 4.736-44.992s-31.264-15.84-44.992-4.736l-62.72 50.752c-7.52 6.048-11.872 15.232-11.872 24.864V457.141L135.136 735.99c-8.384 9.408-10.464 22.88-5.312 34.4 5.152 11.488 16.608 18.912 29.216 18.912h706.336c12.672 0 24.128-7.456 29.248-19.008s2.976-25.056-5.504-34.432L640.256 457.045v-467.712c0-17.696-14.304-32-32-32z"  horiz-adv-x="1024" />

    
    <glyph glyph-name="im_gengduo_b" unicode="&#58947;" d="M415.93 672.21c0 52.98 43.004 95.984 95.984 95.984s95.984-43.004 95.984-95.984-43.004-95.984-95.984-95.984-95.984 43.003-95.984 95.984zM415.93 384.258c0 52.98 43.004 95.984 95.984 95.984s95.984-43.004 95.984-95.984-43.004-95.984-95.984-95.984-95.984 43.004-95.984 95.984zM415.93 96.13400000000001c0 52.98 43.004 95.984 95.984 95.984s95.984-43.003 95.984-95.984-43.004-95.983-95.984-95.983-95.984 43.175-95.984 95.983z"  horiz-adv-x="1024" />

    
    <glyph glyph-name="xt_anzhuo" unicode="&#58948;" d="M810.517 231.57000000000005c-26.038 0-47.122 21.967-47.122 49.004V490.146c0 27.075 21.084 49.004 47.122 49.004s47.122-21.929 47.122-49.004v-209.572c0-27.037-21.084-49.004-47.122-49.004zM682.208 128.14700000000005H646.3c1.19-4.34 1.882-8.871 1.882-13.595v-103.423c0-27.075-21.123-49.004-47.16-49.004-26 0-47.123 21.929-47.123 49.004V114.55200000000002c0 4.724 0.691 9.255 1.882 13.595h-87.562c1.19-4.34 1.92-8.871 1.92-13.595v-103.423c0-27.075-21.122-49.004-47.16-49.004-26.038 0-47.16 21.929-47.16 49.004V114.55200000000002c0 4.724 0.69 9.255 1.881 13.595h-35.908c-27.42 0-49.734 23.196-49.734 51.73V539.15h439.884v-359.272c0-28.535-22.275-51.731-49.734-51.731zM403.853 735.204l-8.833 13.826-8.756 13.595-19.586 30.57c-2.381 3.725-1.42 8.794 2.19 11.29 3.61 2.535 8.486 1.498 10.906-2.265l21.007-32.76 8.833-13.748 8.948-13.94c28.381 11.405 60.026 17.819 93.438 17.819s65.095-6.414 93.476-17.82l8.948 13.941 8.833 13.749 21.008 32.759c2.38 3.763 7.258 4.8 10.906 2.266 3.572-2.497 4.57-7.566 2.151-11.291l-19.586-30.57-8.718-13.595-8.871-13.826c66.708-32.26 111.795-93.4 111.795-163.41H292.058c0 70.01 45.125 131.15 111.795 163.41z m202.43-98.085c13.019 0 23.541 10.984 23.541 24.502 0 13.519-10.522 24.464-23.541 24.464-13.02 0-23.58-10.945-23.58-24.464 0-13.518 10.56-24.502 23.58-24.502z m-188.527 0c13.019 0 23.542 10.984 23.542 24.502 0 13.519-10.523 24.464-23.542 24.464-13.02 0-23.58-10.945-23.58-24.464 0-13.518 10.56-24.502 23.58-24.502zM213.483 231.57000000000005c-26.038 0-47.122 21.968-47.122 49.005V490.146c0 27.075 21.084 49.004 47.122 49.004s47.16-21.929 47.16-49.004v-209.572c0-27.037-21.122-49.004-47.16-49.004z"  horiz-adv-x="1024" />

    
    <glyph glyph-name="ly_mudidi" unicode="&#58949;" d="M361.276 384.231a147.466 147.466 0 1 1 301.806 0 147.466 147.466 0 1 1-301.806 0zM959.332 412.189h-82.41c-12.28 183.103-158.791 329.615-341.895 341.92V831.9300000000001h-49.615v-77.82c-183.103-12.304-329.616-158.817-341.92-341.92h-78.49v-49.615h78.49c12.304-183.029 158.817-329.566 341.92-341.87v-84.171h49.615v84.17c183.104 12.305 329.616 158.818 341.895 341.871h82.41v49.615zM510.22 93.86099999999999c-161.867 0-293.57 131.703-293.57 293.521 0 161.868 131.703 293.57 293.57 293.57 161.843 0 293.546-131.702 293.546-293.57 0-161.818-131.703-293.521-293.546-293.521z"  horiz-adv-x="1024" />

    
    <glyph glyph-name="xt_pingguo" unicode="&#58950;" d="M849.5 187.83399999999995c0-4.388-17.554-65.827-61.438-127.265-39.496-52.66-74.603-105.322-136.041-109.71-61.438 0-78.992 35.107-149.207 35.107-70.215 0-92.157-35.107-149.207-35.107-57.05-4.389-105.322 57.05-140.43 109.71-78.991 109.711-136.04 307.19-57.05 443.232 39.497 65.826 109.712 109.71 184.315 109.71 57.05 0 114.1-39.495 149.207-39.495s100.934 48.273 171.148 39.496c30.72 0 109.711-13.166 162.372-87.769-4.388-4.388-96.545-57.05-96.545-166.76 4.388-127.265 122.876-171.15 122.876-171.15zM601.537 693.5699999999999c30.719 39.496 52.66 87.769 48.272 140.43-43.884 0-100.934-30.719-131.653-65.826-30.719-30.72-52.66-83.38-48.272-136.042 48.272-4.388 96.545 26.33 131.653 61.438z"  horiz-adv-x="1024" />

    
    <glyph glyph-name="sr_weibo" unicode="&#58951;" d="M468.655 414.736c-85.902-9.458-151.313-60.683-145.009-115.85 5.517-55.166 80.386-92.206 166.287-82.75 85.902 9.458 151.314 60.684 145.01 115.85-5.517 55.166-80.386 92.207-166.288 82.75z m-1.576-181.261c-44.921-2.365-81.962 27.583-78.81 70.14 2.365 42.557 39.405 74.868 83.538 74.868 44.922 0 79.598-31.523 78.021-70.928-1.576-39.404-37.828-71.716-82.75-74.08zM474.96 317.79999999999995a10.245 10.245 0 1 1 20.49 0 10.245 10.245 0 1 1-20.49 0zM444.224 313.86c-16.55 0-29.947-11.821-29.16-25.219 0-14.186 12.61-24.43 27.584-22.855 14.974 0.788 28.371 11.822 28.371 24.431 0.788 13.398-9.457 24.431-26.795 23.643zM511.212 834C262.963 834 62 633.037 62 384.788s200.963-449.212 449.212-449.212S960.424 136.53999999999996 960.424 384.788 759.46 834 511.212 834z m130.035-338.091c-0.788 0-0.788 0 0 0h-3.152c-8.67 0-14.974 6.305-14.974 13.397 0 7.093 5.516 12.61 13.397 13.398 98.512 6.305 77.233-74.08 77.233-74.08-0.788-5.517-6.304-9.458-11.821-9.458-7.093 0-11.821 5.517-11.821 12.61 0 1.576 0 3.152 0.788 4.728 0.788 47.286-40.981 41.77-49.65 39.405z m74.869-167.863c0-11.822-0.789-52.803-77.233-104.028-111.121-67.776-300.263-44.134-352.277 60.683-5.517 12.609-16.55 48.073 0 87.478 9.457 24.43 81.961 113.485 104.028 124.518 18.914 19.702 79.597 47.285 107.18 40.193 27.584-7.093 33.888-37.829 26.795-60.683-4.728-14.186 5.517-20.49 13.398-16.55 7.093 1.576 10.245 9.457 33.888 16.55 30.735 5.516 45.71 7.88 70.14-10.246 25.219-17.338 6.305-53.59 6.305-53.59s-7.093-11.033 3.152-13.397c70.14-23.643 64.624-59.107 64.624-70.928zM788.62 433.65c-2.364-9.457-11.033-15.762-20.49-15.762-11.034 0.788-19.703 10.245-19.703 21.278 0 2.365 0.788 3.94 1.577 6.305 15.761 119.002-103.24 111.909-103.24 111.909h-3.153c-11.033 0.788-18.914 10.245-18.914 21.278 0.788 10.246 7.88 18.127 17.338 18.915h4.729C824.084 587.327 788.62 433.65 788.62 433.65z"  horiz-adv-x="1024" />

    
    <glyph glyph-name="sr_zhifubao" unicode="&#58952;" d="M311.133 140.48400000000004c-130.175 0-152.619 83.042-145.885 116.708 6.733 33.666 44.887 78.554 116.708 78.554 83.042 0 159.351-22.444 249.127-65.088-62.843-80.798-139.152-130.174-219.95-130.174z m648.628 78.553V661.182C959.761 755.446 883.452 834 786.943 834h-552.12C140.56 834 62.007 757.69 62.007 661.182v-552.12c0-94.264 76.309-172.818 172.818-172.818h552.12c85.286 0 154.862 60.599 170.573 141.397-44.888 20.2-244.639 105.486-347.88 154.863-78.554-94.265-161.596-152.619-285.038-152.619-123.441 0-206.484 76.31-197.506 170.574 6.733 60.598 49.376 161.596 231.172 143.64 96.509-8.977 141.396-26.932 219.95-53.865 20.2 38.155 38.155 78.554 49.377 121.197h-347.88v33.666h172.817V557.94H241.557v38.155h210.972V685.87s2.245 13.467 17.955 13.467h85.287v-103.242h224.44v-38.155H555.77v-62.843h184.04c-15.71-69.576-42.643-132.419-74.065-186.284 51.621-15.71 294.015-89.776 294.015-89.776z"  horiz-adv-x="1024" />

    
    <glyph glyph-name="sr_qq" unicode="&#58953;" d="M512 834C263.47 834 62 632.53 62 384c0-248.507 201.47-450 450-450s450 201.493 450 450c0 248.53-201.47 450-450 450z m199.386-559.918s-14.247-38.866-40.382-73.777c0 0 46.693-15.868 42.75-57.114 0 0 1.563-46.007-99.722-42.833 0 0-71.254 5.554-92.618 35.692h-18.828c-21.364-30.15-92.594-35.692-92.594-35.692-101.32-3.174-99.734 42.833-99.734 42.833-3.955 41.246 42.738 57.114 42.738 57.114-26.112 34.91-40.358 73.777-40.358 73.777-63.331-102.34-56.996 14.281-56.996 14.281 11.89 69.016 61.733 114.23 61.733 114.23-7.129 62.68 18.995 73.775 18.995 73.775C341.853 670.271 508.507 666.884 512 666.79c3.505 0.095 170.136 3.482 175.63-190.409 0 0 26.112-11.108 18.995-73.776 0 0 49.867-45.213 61.733-114.229 0-0.012 6.324-116.633-56.972-14.293z m0 0"  horiz-adv-x="1024" />

    
    <glyph glyph-name="xt_weiruan" unicode="&#58954;" d="M128 405.333v224l256 56.32v-276.48l-256-3.84m725.333 384V416l-426.666-6.4V695.04l426.666 94.293M128 362.66700000000003l256-3.84v-290.56l-256 49.066V362.66700000000003M853.333 352v-373.333L426.667 60.15999999999997V358.4l426.666-6.4z"  horiz-adv-x="1024" />

    
    <glyph glyph-name="ln_jiantoushang" unicode="&#58955;" d="M909.559 126.03499999999997c47.337 0 74.221 62.536 39.741 97.005l-397.397 397.4c-22.79 22.792-56.686 22.792-79.478 0L75.042 223.03999999999996c-35.368-35.355-5.844-97.005 40.325-97.005h794.192z"  horiz-adv-x="1024" />

    
    <glyph glyph-name="ln_jiantouxia" unicode="&#58956;" d="M115.367 637.5319999999999c-46.169 0-75.691-61.65-40.325-97.005l397.383-397.4c22.792-22.792 56.689-22.792 79.478 0l397.397 397.4c34.48 34.469 7.598 97.005-39.741 97.005H115.367z"  horiz-adv-x="1024" />

    
    <glyph glyph-name="py_yinlian" unicode="&#58957;" d="M207.148 688.1179999999999c-28.3-3.676-56.36-26.89-65.508-54.252-5.707-16.886-116.084-495.913-116.473-505.06-0.86-24.935 13.288-43.54 36.74-48.31 8.756-1.795 749.03-1.873 758.33-0.156 26.502 5.079 51.515 26.265 61.048 51.67 3.68 9.852 117.026 498.416 117.494 506.546 1.331 22.982-12.036 41.824-34.553 48.623-5.08 1.485-745.274 2.502-757.078 0.939zM198.55 532.4c0-0.546-0.706-3.44-1.563-6.41-11.728-40.024-23.375-93.726-21.89-100.604 4.301-20.17 33.144-18.528 43.698 2.423 2.97 5.782 25.091 99.198 25.091 105.762 0 0.314 34.632-0.153 34.942-0.467 0.079-0.079-0.153-1.407-0.624-2.891-0.39-1.485-6.018-23.218-12.428-48.388-13.76-54.33-15.558-59.88-22.747-70.434-23.61-34.864-102.171-33.768-108.581 1.488-1.407 7.895 15.48 96.147 22.982 120.146 0.392 1.253 41.12 0.625 41.12-0.625z m523.35 0c23.534-5.16 30.72-24.156 19.851-52.138-10.94-28.065-33.768-40.65-74.178-40.65-12.196 0-11.26 1.874-19.152-36.348-1.485-7.27-2.895-13.995-3.127-14.855-0.546-2.499-36.898-2.499-36.506 0 30.72 131.717 33.147 143.053 33.38 143.991l0.389 1.72 36.976-0.235c29.546-0.235 37.99-0.546 42.367-1.485z m-315.73-50.653c4.925-1.253 8.912-5.161 8.912-8.677 0-12.742-26.187-21.497-35.724-11.96-9.773 9.769 9.926 24.856 26.812 20.637z m-90.836-9.694c0-1.25-0.31-3.284-0.625-4.455l-0.624-2.112 6.174 3.126c16.262 8.21 32.209 6.803 37.445-3.437 3.205-6.1 2.812-9.772-5.393-47.841-1.485-6.878-3.363-16.026-4.066-20.323-1.798-10.319-0.467-9.616-18.76-9.93-15.636-0.235-15.636-0.235-15.479 1.485 0.079 0.86 1.956 9.301 4.065 18.763 8.363 36.506 8.52 41.663 1.328 41.663-3.987 0-9.694-2.423-10.083-4.222-0.781-3.516-10.083-48.073-10.943-52.453l-0.939-4.69-16.025-0.546c-19.463-0.624-18.057-2.188-13.76 15.555 5.476 22.514 8.756 38.461 10.947 52.531 2.424 15.48 0.782 13.76 15.398 16.104 6.646 1.017 13.445 2.188 15.165 2.66 5.083 1.17 6.253 0.86 6.175-1.878z m243.111 0.389c0-1.092-0.314-3.127-0.628-4.455l-0.624-2.58 6.174 3.127c31.898 16.496 44.162 2.894 34.786-38.694-2.11-9.458-4.85-22.436-6.018-28.921-1.178-6.41-2.58-12.117-3.052-12.664-1.795-1.798-32.13-1.72-31.972 0.154 0.078 0.86 1.877 9.148 4.065 18.37 8.598 37.288 8.677 42.135 1.17 42.213-6.02 0-9.38-2.03-10.396-6.488-1.332-5.55-9.066-42.68-10.397-49.405l-1.014-5.472-16.026-0.467c-19.544-0.546-17.981-2.502-13.366 16.571 4.918 20.248 8.905 39.554 11.021 53.47 1.953 13.21 0.546 11.725 13.292 13.678 5.782 0.938 12.663 2.112 15.244 2.737 6.492 1.406 7.82 1.25 7.741-1.174z m311.119 0.86c1.877-31.423 2.502-40.567 2.816-40.96 0.232-0.314 4.69 7.66 9.765 17.824 10.4 20.559 8.134 18.293 19.548 19.93 3.049 0.472 9.148 1.564 13.6 2.424 11.178 2.27 11.256 3.052-1.721-19.305-17.507-30.253-41.667-72.78-50.183-88.256-26.03-47.684-25.873-47.445-48.23-47.92l-13.135-0.31 1.174 3.83c0.625 2.03 1.874 6.332 2.813 9.458l1.72 5.625h4.062c4.69 0 5.55 0.782 9.926 8.206 1.563 2.58 3.908 6.646 5.318 8.99 1.488 2.346 6.41 10.865 10.943 18.917l8.363 14.541-2.188 19.074c-2.502 22.2-5.786 47.92-7.114 55.968-1.174 7.039-1.174 6.96 8.05 8.366 4.061 0.625 10.557 1.8 14.383 2.66 8.212 1.72 9.547 1.877 10.09 0.938z m-386.007-0.935c39.557-7.27 25.64-75.984-17.275-85.521-29.078-6.486-49.012 4.615-49.012 27.361-0.079 39.397 29.078 65.038 66.287 58.16z m294.622-1.799c2.19-0.939 5.007-3.048 6.413-4.611 2.345-2.66 2.499-2.738 2.738-1.096 0.31 2.03 0.075 1.956 20.48 5.314 16.568 2.66 15.868 2.738 14.694-2.266-6.878-28.768-12.428-53.78-14.616-65.976-3.359-18.292-0.86-16.337-20.794-16.101l-16.725 0.232 0.232 2.191c0.235 2.11-0.86 2.892-1.799 1.328-5.782-9.301-33.3-5.393-41.035 5.786-19.548 28.453 21.023 88.958 50.412 75.199z m-367.634-15.008c0.236-0.236 0-2.424-0.624-4.847-3.908-16.415-11.41-49.483-12.585-55.658l-1.406-7.428-16.808-0.467c-20.169-0.546-18.916-1.485-14.93 10.554 3.752 11.646 7.114 26.34 9.459 41.506 1.952 13.056-0.079 11.179 14.62 13.367 6.798 1.017 13.755 2.19 15.475 2.58 3.83 0.86 6.253 1.017 6.8 0.393z m89.74-105.845c0-0.47-1.013-2.659-2.345-4.922-1.249-2.348-2.344-4.457-2.344-4.693 30.252-0.546 31.348-0.625 30.958-1.874l-5.393-18.213h-43.858l-2.423-2.27c-5.472-5.236-35.567-11.804-35.567-7.738l5.55 18.606h4.065c6.957 0 8.756 1.485 14.852 12.346l5.318 9.54c25.637 0.004 31.187-0.31 31.187-0.782z m67.23-0.157c0-0.546-0.7-3.283-1.56-6.096s-1.567-5.318-1.567-5.628c0-0.232 2.58 1.252 5.707 3.362 11.332 7.502 20.794 9.305 49.715 9.305 11.49 0 21.105-0.16 21.34-0.39 0.703-0.781-16.418-56.439-18.916-61.368-3.36-6.642-6.957-10.315-12.664-12.977l-4.922-2.267-29.314-0.386-29.317-0.392-5.236-17.2c-10.165-33.068-10.472-30.873 4.533-29.389 11.96 1.171 11.179 2.267 7.503-10.165l-3.127-10.472-15.087-0.235c-32.362-0.543-36.584 1.406-33.065 15.008 1.72 6.567 38.458 128.59 39.008 129.526 0.781 1.174 26.968 0.939 26.968-0.236z m134.45 0.236c0-0.386-0.545-2.188-1.174-3.987-1.72-4.922-1.72-4.922 4.926-1.56 8.752 4.455 29.157 6.254 71.134 6.254h13.445v-6.179c0-7.27 0.392-7.738 6.878-8.52l4.69-0.549-2.813-9.144-2.737-9.226-9.063-0.154c-23.453-0.471-27.364 1.795-27.518 15.79v6.642l-1.567-4.843-1.563-4.926h-5c-2.817 0-5.083-0.157-5.083-0.392 0-0.232-24.938-83.251-28.61-95.133-0.39-1.17 0.078-1.406 3.047-1.406 4.38 0 4.537-0.232 3.206-4.062-1.564-4.533-1.564-4.533 3.826-4.533 3.52 0 5.867 0.47 8.366 1.795 3.673 1.8 3.362 1.489 19.78 24.624l6.8 9.537h-13.913c-16.654 0-15.401-0.932-12.353 9.226l2.499 8.36 16.885 0.235 16.808 0.157c3.205 10.708 4.147 14.07 4.147 14.305 0 0.31-7.353 0.628-16.265 0.703l-16.257 0.236 2.734 9.22 2.659 9.147h46.039c25.248 0 45.967-0.232 45.967-0.546 0-0.39-1.174-4.454-2.58-9.223l-2.584-8.598-15.555-0.393-15.476-0.392c-2.659-7.895-3.676-11.1-3.987-12.275l-0.474-2.187h14.78c17.428 0 16.257 0.781 13.052-9.459l-2.502-8.13-16.882-0.236-16.964-0.157-2.424-3.127-2.427-3.048 6.492-0.235 6.486-0.232 1.952-12.35c2.188-13.912 2.113-13.837 8.834-13.837 5.314 0 5.16 1.089 1.563-11.1l-2.97-10.012h-9.611c-16.968 0-20.095 2.741-22.829 19.856l-1.72 11.492-6.175-8.444c-16.81-23.136-17.746-23.685-39.557-23.685-13.756 0-13.602-0.079-11.96 4.222 0.703 2.03 0.703 2.03-3.362 2.03-4.14 0-4.14 0-4.922-2.89l-0.704-2.97-14.305-0.235-14.302-0.157 0.468 1.72c1.41 5.007 4.222 4.533-27.358 4.533-26.894 0-28.614 0.078-28.225 1.41l2.816 8.987c2.895 9.458 2.66 9.15 5.86 9.15 2.428 0 2.66 0.233 3.834 3.752 24.31 80.596 31.97 105.844 32.986 109.438l1.956 6.414h14.456c7.912 0.004 14.4-0.31 14.4-0.703z m-181.589-44.012l-5.471-17.82h-30.956c-3.126-10.005-4.222-13.524-4.454-14.23-0.393-1.329 0.703-1.404 15.24-1.404 8.677 0 15.715-0.317 15.715-0.706 0-0.31-0.314-1.635-0.781-2.891a582.874 582.874 0 0 1-2.738-9.066l-2.03-6.881h-31.738l-3.598-12.04c-5.314-17.431-4.768-17.98 14.93-15.161 8.13 1.092 7.817 1.795 4.223-10.008l-3.048-10.083h-21.42c-33.535 0-34.16 0.782-25.326 30.017 2.813 9.144 5.079 16.807 5.079 16.964 0 0.154-3.83 0.314-8.598 0.314-4.69 0-8.598 0.232-8.598 0.468 3.75 12.82 5.004 16.964 5.157 17.746 0.393 1.174 1.488 1.33 9.305 1.33h8.834l4.297 15.634h-8.363c-6.253 0-8.287 0.235-8.287 1.017 0 1.014 4.611 16.1 5.24 17.196 0.624 1.093 77.854 0.7 77.386-0.396z m99.199-37.13c-0.232-0.781-0.936-3.908-1.56-6.881-2.973-14.302-7.039-17.507-23.767-18.446-5.786-0.314-10.633-0.781-10.94-1.017-1.253-1.331-1.1-13.756 0.229-15.79l1.33-2.034 10.084 0.546c5.55 0.314 10.083 0.474 10.083 0.314 0-0.86-5.475-18.838-5.94-19.62-0.781-1.253-32.44-0.314-36.583 1.092-6.329 2.11-6.254 1.407-5.472 33.615l0.7 28.375 13.134 0.235 13.053 0.157v-10.946h5.086c5.778 0 6.253 0.47 8.598 7.663l1.328 4.065h10.475c9.694 0.007 10.554-0.075 10.162-1.328z m48.309 219.19l-5.55-24.387 7.74-0.236c39.24-1.096 55.894 44.4 17.43 47.527-6.018 0.471-11.647 1.017-12.507 1.174-1.485 0.311-1.95-1.484-7.113-24.077z m-204.026-34.941c-9.926-3.987-18.838-40.882-11.332-46.668 5.625-4.379 13.756 2.892 17.664 15.79 7.192 24 4.847 35.41-6.332 30.878z m305.337-2.502c-10.24-5.158-18.135-41.431-10.008-45.65 10.397-5.393 23.296 13.912 23.296 34.942 0 10.004-5.629 14.537-13.288 10.708zM562.432 328.45500000000004l-2.734-9.148c-1.413-4.454-2.66-8.602-2.898-9.144-0.236-0.625 2.502 0.467 6.096 2.345 10.008 5.314 13.37 6.02 28.222 6.488l13.052 0.468c1.881 6.332 2.424 8.598 2.424 9.07 0.003 1.327-43.694 1.17-44.162-0.08z m-8.99-29.314l-2.267-8.049 43.933 0.39 2.812 8.205c-34.47 0-44.479-0.235-44.479-0.546z m139.065 18.524c-1.952-6.407-3.358-11.728-3.126-11.728 0.235 0 3.126 1.02 6.331 2.267 3.202 1.252 8.52 2.659 11.725 3.126 3.202 0.55 5.864 1.017 5.943 1.096 0.232 0.235 5.004 15.947 5.004 16.493 0 0.236-5.004 0.471-11.175 0.471h-11.18l-3.522-11.725z m-7.973-26.337c-0.157-0.393-1.874-5.71-3.673-11.96-1.799-6.254-3.44-11.575-3.598-11.807-0.153-0.314 2.502 0.703 6.025 2.188 3.434 1.488 8.834 3.205 11.96 3.755 6.878 1.174 7.189 1.327 7.738 4.065 0.314 1.246 1.403 4.922 2.424 8.287l1.877 6.018h-11.175c-6.185-0.003-11.421-0.242-11.578-0.546z m-17.74-59.02l22.355-0.628c4.532 15.322 6.1 20.248 6.328 20.794l-22.354 1.092-6.328-21.258z"  horiz-adv-x="1024" />

    
    </font>
</defs>
</svg>
